<?xml version="1.0" encoding="utf-8"?>
<!-- Generator: Adobe Illustrator 16.0.0, SVG Export Plug-In . SVG Version: 6.00 Build 0)  -->
<!DOCTYPE svg PUBLIC "-//W3C//DTD SVG 1.1//EN" "http://www.w3.org/Graphics/SVG/1.1/DTD/svg11.dtd">
<svg version="1.1" xmlns="http://www.w3.org/2000/svg" xmlns:xlink="http://www.w3.org/1999/xlink" x="0px" y="0px" width="288px"
	 height="216px" viewBox="0 0 288 216" enable-background="new 0 0 288 216" xml:space="preserve">
<g id="Layer_2">
</g>
<g id="Layer_3">
	<path fill="none" stroke="#EC1E24" stroke-miterlimit="10" d="M90.877,94.417c5.167-9-5.167-17.167-8.917-21.917
		c-2.224-2.817-3.657-5.545-2.688-6.625c1.894-2.109,3.604-9.792,1.104-12.292c-3.303,1-6.833-1-1.833-6.333
		c2.833-2.667,5.333-21.167-6-21.334c-1.583-9.854-17.271-13.354-29.708-6.854c0,0-0.537-1.042-3.875-1.375
		c-3.271-0.326-9.375,3.562-4.734,18.435c-1.875,4.062,0.15,7.294,2.65,7.127c-0.667,2-0.26,7.936,0.146,10.688
		c-3.854-0.094-1.868,12.5-0.562,12.5c-8.312,6.375-17.415,17.976-17.417,22.979c-0.002,7.623,9.917,13.582,9.104,15.104
		c-0.688,1.021-5.75,7.167-5.783,18.729c-0.03,10.5,7.326,11.763,7.825,11.333c0.75-0.646-0.542-3.667-0.021-4.312
		s1.812-0.688,2.292,0.083s-0.292,7.481,0.208,11.147c-5.333,7.833-4.125,35.082-4.125,35.249c-5.167,2-8.167,10-4.667,10.833
		s13.833-2.167,14.667-8.166c8.167-42.833,13.167-44.5,13.167-44.5s8.667,0.333,8.667,0.167c7.5,6.334,12.021,42.902,13.118,46.922
		c0.715,2.619,14.338,6.633,15.882,4.744c2.146-2.625-1.667-7.188-7.479-10.25c2.438-26.168-2.652-34.169-3.152-37.502
		c10.422-0.666,12.756-8,13.256-10c0.536-2.144,8.13-8.005,9.333,3.667c1.667,16.167,5.333,16.667,11.125,9.96
		C124.21,121.875,108.314,107.792,90.877,94.417z M35.876,93.333c-0.75,0.124-3.583-2.791-3.667-3.667s2.958-3.791,4.083-3.75
		s1.583,0.959,1.583,1.75S36.626,93.209,35.876,93.333z"/>
	<path d="M31.311,151.75c2.61,1.364,9.647,1.584,11.272,1.084c0.125,0.125-6.39,24.229-5.896,26.666
		c0.479,2.453-7.312,5.375-8.562,5.75s-5.28,1.454-3.688-2.249c1.146-2.667,6.438-4.751,6.813-4.751
		C30.625,174,29.436,156.375,31.311,151.75z"/>
	<path d="M80.031,151.75c-2.61,1.364-9.335,1.417-10.96,0.917c-0.125,0.125,5.429,23.416,5.513,27.416
		c0.083,2.333,8.083,5.23,9.333,5.605s5.759,1.431,4.167-2.272c-1.146-2.667-6.668-5.096-7.75-5.583
		C80.958,173.583,81.007,157.182,80.031,151.75z"/>
	<path d="M41.667,110.417c2-0.333,8.917,4.75,12,11.666c0.917,1.834-6.75,13.668-8.5,19.334s-2.496,8.917-2.581,10
		s-9.02,0.583-10.52-0.833s1.768-5.917,2.185-7.251s-0.417-15.917,1.333-22.5S39.667,110.75,41.667,110.417z"/>
	<path d="M69.75,110.417c-2-0.333-8.917,4.75-12,11.666c-0.917,1.834,6.75,13.668,8.5,19.334s2.734,8.667,2.819,9.75
		s8.576,0.999,10.076-0.417s-2.062-6.333-2.479-7.667s0.001-15.166-1.25-21.75C74.145,114.641,71.75,110.75,69.75,110.417z"/>
	<path d="M55.526,123.292c1.708,0,3.419,6.68,2.932,7.375c-0.375,0.535-5.15,0.866-5.708-0.042
		C52.188,129.712,54.11,123.292,55.526,123.292z"/>
	<path d="M74.625,112.688c-0.641-1.008,9.125-11.5,10.188-11.562s12.146,18.438,11.583,19.812S92.562,122.25,90,128.5
		c-0.893,2.177-5.625,9.938-11.938,8.438C77,116.625,76.062,116.688,74.625,112.688z"/>
	<path d="M85.938,99.562c0.312-1.438,1.625-2.812,2.438-2.75s25.052,18.312,26.188,28.438c1.641,14.628-7.737,22.776-9.188,16.812
		C103.25,117.438,85.625,101,85.938,99.562z"/>
	<path d="M32.875,109.5c0.528-0.812,4.562,2.188,4.438,2.875s-3.163,6.537-3.726,13.92c-0.062,1.195-1.899,0.643-2.524,0.143
		s-1.568-0.997-1.572-3.5C29.481,116.5,32.875,109.5,32.875,109.5z"/>
	<path d="M30.312,104.688c0.617-0.098,2.25,3,2.062,3.438s-6.384,11.125-4.134,22.625c0.438,1.75-3.613-1.293-4.116-7.458
		S29.125,104.875,30.312,104.688z"/>
	<path d="M43.125,109.403c1.071-2.111,3.458-2.57,2.375-6.403c3.911,0.898,14.583,1,20.083,0c-0.75,4.75,2.479,4.542,2.479,6.854
		c-2.584,0.701-9.131,6.917-10,9.917c-0.75,2.188-3.358,1.95-4.32,0.197C52.65,117.979,47.5,111.216,43.125,109.403z"/>
	<path d="M79.512,104.188c0,0.564-4.208,5.532-5.137,6.214s-2.958,0.404-3.208-1.04c-1.465-0.169-1.833-0.974-1.667-1.861
		c-0.907,0.292-2.542-0.566-2.708-1.375c-0.542-2.625,0.864-2.875,1.271-2.875c-0.291-1.512,1.323-2.805,2.239-3.055
		c1.782,0.471,4.278,0.25,4.944-0.083C76.086,100.112,79.072,103.638,79.512,104.188z"/>
	<path d="M31.674,104.686c0,0.564,4.314,5.034,5.242,5.716s2.917,0.471,3.083-1.04c1.465-0.169,2.168-0.974,2.002-1.861
		c0.907,0.292,2.542-0.566,2.708-1.375c0.542-2.625-0.864-2.875-1.271-2.875c0.291-1.512-1.323-2.805-2.239-3.055
		c-1.782,0.471-5.117,0.333-5.784,0C35.333,100.195,31.674,104.686,31.674,104.686z"/>
	<path d="M44.833,97.881c5.229,2.07,18.898,1.182,20.917-0.318c1.103-0.812,1.875,3.062,0.25,3.812s-16.521,2-21.167,0.375
		C43.208,101.209,43.125,96.875,44.833,97.881z"/>
	<path d="M30.812,103.375c0.689,0.046,4.125-3.688,4.188-4.875s-6.562-6.938-6.125-9.5s6.985-5.438,7.062-6.938
		c0.125-2.438,2.316-9.375,5.5-9.688C42,72.422,41.688,73.125,41,73.5c-1.875,1.25-8.077,11.561,2.11,14.186
		c-0.417-6.062,4.14-13.998,6.015-15.248c-3.122-2.717-8-5.188-9.438-5.25S20.29,83.959,20.438,89.375
		S29.875,103.312,30.812,103.375z"/>
	<path d="M80.312,103.375c-0.689,0.046-4.125-3.688-4.188-4.875s6.562-6.938,6.125-9.5s-6.672-5.812-6.749-7.312
		c-0.125-2.438-1-6.396-5.207-9.568c-0.785-0.545-1.701-0.557-0.606,0.381c5.312,5.75,8.085,13-1.916,14.812
		c0.417-6.062-3.959-14.375-5.834-15.625c0-1.062,8.062-4.438,9.499-4.5s19.398,16.771,19.25,22.188S81.249,103.312,80.312,103.375z
		"/>
	<path d="M68.062,88.812c-0.05-0.947,3.375-0.125,6.532-4.188c1.389-1.787,6.288,2.99,6.473,4.562c0.2,1.706-6.141,9.548-6.796,9.68
		c-1.472,0.297-3.603,0.562-4.896-0.367C68.593,97.938,68.208,91.562,68.062,88.812z"/>
	<path d="M51.441,98.092c1.307,0.574,7.263,0.252,8.201-0.123c0.389-0.219,0.156-3.407-0.192-3.731
		c-0.356-0.331-7.387-0.175-7.7,0.075S51.094,97.844,51.441,98.092z"/>
	<path d="M32.39,82.062"/>
	<path d="M66.669,89.188c-1.261-0.492-4.731,0.434-4.731-1.062c0-0.688,2.882,0.352,4.312-0.125c3.506-1.17-4.018-15.21-6.125-16
		c-1-0.375-4.212,0.76-5.25,0.75c-1.979-0.02-4.53-0.648-5.188,0c-4.375,4.312-6.125,13.04-5.69,14.632
		c0.442,1.619,4.315,0.118,4.252,0.931c-0.109,1.424-2.51,0.145-3.875,0.875c-0.75,0.4-0.891,5.314-0.516,7s4.93,2.047,6.242,1.859
		s0.336-3.984,0.773-4.422s7.688-0.438,9-0.188c1,0.19,0.188,2.938,1,4.014c0.812,1.075,5.169-0.326,5.794-1.076
		S67.628,89.562,66.669,89.188z M60.529,89.584c-0.39,0.803-1.684,0.664-5.682,0.664c-2.217,0-3.811,0.106-4.365-0.332
		c-1.268-1-0.321-2.958,0.878-6.412c1.722-4.957,3.101-6.088,4.234-6.088c0.99,0,2.388,2.911,2.817,3.75
		C58.73,81.793,61.5,87.584,60.529,89.584z"/>
	<path d="M54.847,89.673c-2.219,0-2.658-0.212-3.036-0.51c-0.851-0.671-1.16-1.858,0.094-5.47c1.731-4.986,2.876-4.986,3.56-4.986
		c1.199,0,1.606,1.529,2.209,2.709c0.03,0.059,3.003,6.304,1.944,7.22C59.187,89.009,58.869,89.673,54.847,89.673z"/>
	<path d="M40.667,88.417c2.375-0.5,2.188,7.981,1.814,9.675c-0.296,1.342-3.394,1.447-4.228,1.053s2.909-3.895,2.247-4.561
		c-0.663-0.667-1.833,3.309-2.833,3.82c-1,0.513-1.583,0.221-1.917-0.953C35.417,96.275,39.179,88.73,40.667,88.417z"/>
	<path d="M75,67.667c-0.599,0.257-2.25-1.501-3.75-1.417s-11.708,5.834-18.167,5.167c-7.058-0.729-11.649-5.667-13.866-6.333
		c-1.384-0.75,0.032-2.167,1.949-2.25c1.917-0.084,3.083,2.333,4,1.833c1.28-0.698-5.501-3.001-0.167-4.167
		c2.667-0.583,2.621,4.75,5,5.404c3.333,0.916,6.5-1.487,8.083-1.237s2.417,0.583,4.833,0.5s4.169-2.417,4.855-0.833
		c0.16,0.369-4.772,2.541-4.022,2.854s5.583-3.104,8.083-2.854S77.333,66.667,75,67.667z"/>
	<path d="M59,54c-3,3.375-3,8,2.188,10c5.522,2.129,7.688-7.062,8.812-5.188c-3.188,5.938,0.085,4.309,2.356,4.309
		c1.688,0,1.463,0.923,3.485,1.143c3.909,0.424,4.431-11.096,2.076-8.472c-2.542,2.833-5.333,0.583-4.708,2.208
		c0.134,0.348,1.481,0.5,1.386,1.188s-2.592,0.25-2.342-2.25S72.582,51.524,75.841,46c2.284-2.375,2.534-5.5,2.534-7.25
		s0.125-6.5-3.125-9.5s-4.625-1.625-5-1.25c0.37-6.51-7.875-9.567-10.562-10.067s-20.5-0.995-15.062,5.942
		c0.75,0.875-3.545,1.049-4.888-2.617c0,0-0.091-1.716-0.675-1.779c-4.323-0.463-5.043,11.5-1.562,14.021
		c-3.634,3.526-2.299,6.75,1.163,6.875c-0.288-5.25,3.871-10.062,5.212-10.688C42.716,29.562,42.5,30,40.75,29.5s0.818-1.25,2.909-1
		s3.841,1.5,6.716,2.875s9.625,0.75,12.375-0.75c3.875,1.125,3.5,6.875,1.625,8.875s-4.125,6.375-1,9.875S66.125,56,64.25,57.25
		S59,58.5,59,54z"/>
	<path d="M36.917,56.5c0.583-0.917,1.375,2,2.458,2.083s4.963-0.666,5,0.583c0.049,1.667-3.904,1.625-6.375,4.131
		C37.297,64.012,35.643,58.501,36.917,56.5z"/>
	<path d="M37.812,55.75c1.438,0.656,2.486,2.562,3.28,2.128c0.104-0.057,1.454-1.502-0.218-2.378
		C39.166,54.604,36.722,55.252,37.812,55.75z"/>
	<path d="M46.347,52.823c0,0,3.524,0.125,6.479-0.323C50.249,56.136,48.396,56.978,46.347,52.823z"/>
	<path d="M62.688,50.688c-2.83-2.38-2.094-6.115-1.562-8.021C61.178,42.475,61.258,42,61.345,42c-0.001,0-0.002,0-0.003,0
		c-1.1,0-2.812,0.179-4.105,0.293c0.001,0.06,0.015,0.157,0.015,0.216c0,2.927-2.037,5.321-4.549,5.321s-4.549-2.363-4.549-5.29
		c0-0.296,0.035-0.576,0.075-0.859c-0.331-0.002-0.684,0.037-1.043,0.097c0.032,0.253,0.066,0.507,0.066,0.771
		c0,0.143-0.026,0.278-0.036,0.418c0.002,0.119-0.011,0.258-0.035,0.409c-0.065,0.481-0.179,0.94-0.348,1.369
		c-0.009,0.029-0.018,0.061-0.027,0.09c-0.323,1.058-0.833,3.396,1.194,3.227c0.75-0.062,1.586,0.812,0.344,1.073
		c-1.474-0.164-2.59-0.042-2.974-2.308c-0.75,0.637-1.667,1.024-2.667,1.024c-1.717,0-3.194-1.123-3.969-2.76
		c-0.099,2.986,0.521,5.436,1.141,7.158c1.438,4,5.659,6.978,8.625,8.205c4.938,2.045,3.173,2.789,2.236,2.602
		s-2.111-2.105-2.236-0.807c-0.107,1.111,0.957,3.004,3.207,3.062s4.418-0.938,4.98-1.875s0.036-2.75-0.5-4.125
		s0.062-5.375,3.625-6.5c0.188,4.938,2.812,4.438,4.104,3.625S65.518,53.068,62.688,50.688z M54.083,53.59
		c-0.917,0.25-1.875,2.586-4.417,2.908s-2.95-1.701-3.45-2.368s-3.142-2.862-2.308-2.88c3.758-0.083,8.193-0.108,9.093-0.108
		s-0.084,0.691,0.832,1.025S55,53.34,54.083,53.59z"/>
	<path d="M41.431,35.602c-0.458,0.849-0.839,1.677-1.167,2.488c0.706-0.525,1.54-0.839,2.439-0.839c1.894,0,3.515,1.35,4.199,3.267
		c0.532-0.085,1.09-0.113,1.626-0.065c0.698-1.882,2.303-3.202,4.175-3.202c2.139,0,3.92,1.726,4.406,4.043
		c1.396-0.18,3.294-0.232,4.765-0.107c0.811-1.322,1.958-2.738,2.313-4.249c0.5-2.125-1.312-4.938-1.938-4.438
		c-3.75,1.438-8.942,0.718-11,0.375c-2.25-0.375-5.317-3.664-6.629-2.039c-0.792,0.981-1.465,1.94-2.073,2.885
		c1.092-0.113,2.884,0.354,2.786,0.946C45.205,35.439,42.88,34.862,41.431,35.602z M52.804,35.417
		c0.143-0.571,1.911-0.917,3.113,0.167s1.728,2.104,1.394,2.604s-1.467-1.029-2.404-1.779S52.554,36.417,52.804,35.417z"/>
	<path d="M42.688,38.25c-1.497,0-2.758,1.226-3.229,2.927c0.104,0.355,0.166,0.748,0.166,1.165c0,0.513-0.094,0.988-0.246,1.4
		c0.39,1.871,1.717,3.257,3.31,3.257c1.898,0,3.438-1.958,3.438-4.375C46.125,40.209,44.586,38.25,42.688,38.25z M43.541,44.333
		c-0.828,0-1.5-1.138-1.5-2.542s0.672-2.542,1.5-2.542c0.829,0,1.5,1.138,1.5,2.542S44.37,44.333,43.541,44.333z"/>
	<path d="M52.688,38.25c-1.898,0-3.437,1.958-3.437,4.375c0,2.417,1.539,4.375,3.437,4.375c1.898,0,3.438-1.958,3.438-4.375
		C56.125,40.209,54.586,38.25,52.688,38.25z M53.541,44.333c-0.828,0-1.5-1.138-1.5-2.542s0.672-2.542,1.5-2.542
		c0.829,0,1.5,1.138,1.5,2.542S54.37,44.333,53.541,44.333z"/>
	<path fill="none" stroke="#EC1E24" stroke-miterlimit="10" d="M164.109,34.917c-10.816-0.631-10.976,9.292-11.318,13.982
		c-0.6,8.196,7.607,10.178,5.23,13.538c-1.697,2.4-5.123,1.772-5.123,1.772c-1.596,3.908,2.625,10.836,8.369,8.881
		c4.086,4.679,11.25,3.198,13.383,2.133c0.592-0.711,0.71,2.131,0,2.724c-0.711,0.592-13.68-3.909-24.989,20.133
		c0,0-5.447-0.593-6.277,0.355c-0.829,0.947-0.473,3.375-0.236,4.086c-0.889,1.599-0.296,2.604,0.533,3.315
		c-1.48,1.48-0.867,7.698-0.77,8.764c-3.22-0.711-7.343,1.125-5.566,4.678c-2.487,0.475-1.304,3.908-0.475,4.501
		c-3.67,0.71-2.368,6.987,0.12,8.526c2.25,1.658,3.198,1.777,3.908,1.777c-0.119,1.775-0.474,4.086,0.473,4.559
		c1.049,0.525,9.238,3.375,15.752-1.717l-0.297-17.587c-0.119-1.421-1.244-3.849-2.724-4.5c1.065-2.783,9.651-14.862,12.316-14.923
		c1.185,0.061,6.987,8.527,6.869,11.133s-5.151,6.1-6.869,10.777c-1.717,4.678-2.704,8.626-1.677,29.074
		c-3.554,3.316-4.817,14.844-4.896,17.764c-0.078,2.922,0.553,10.107,1.185,11.844c-2.763,0.869-9.593,6.81-7.993,12.494
		c0.861,3.063,11.882-0.256,15.04-8.468c2.263-0.636,3.61-2.192,3.532-4.658c-0.121-3.88,2.717-11.843,3.529-15.712
		c0.813-3.869,0.158-6.217,0.104-8.112c0.525-0.512,7.469-11.033,7.875-14.151c0.237-1.816,2.132-1.363,2.132-0.416
		c0,0.948,5.546,11.862,6.493,13.126c0.948,1.264-0.078,9.001,0.316,11.843c0.395,2.843,4.225,14.37,6.751,16.186
		c-0.119,3.154,0.121,3.492,1.463,4.281c1.343,0.791,3.155-0.098,4.104,0.771c0.947,0.869,4.104,3.712,6.711,4.186
		c2.604,0.474,6.236,0.315,6.79-1.343c0.553-1.657-1.501-2.605-4.027-3.79c-2.525-1.184-4.184-2.131-4.816-4.578
		c0.316-0.633,0-3.553-0.71-5.133c-0.71-1.579-3-13.737-2.526-16.422c0.474-2.684-0.079-8.054-1.185-10.58
		c1.106-3.947,0.474-18.08-0.632-22.58s-2.447-7.421-4.816-10.422c-2.368-3-4.065-6.987-1.973-10.264
		c0.295-0.569,0.572-1.539,0.631-2.014c0.06-0.474,2.211-0.315,4.105-2.564c4.145,2.131,9.554,13.48,9.316,14.842
		c-0.236,1.362-4.974,13.619-4.264,19.186c2.311,3.79,10.541,7.758,16.047,3.968c0.83-0.533,0.711-2.368,0.711-2.368
		s1.303,0.118,3.139-0.889s4.737-5.033,3.85-6.573c-0.889-1.539-1.955-1.599-1.955-1.599c3.139-2.014,2.014-4.264,1.186-4.619
		c2.072-2.545,0.65-4.974-1.066-5.388c-1.718-0.415-2.487-0.474-2.487-0.474c0.11-1.071-0.77-2.311-1.185-1.955
		c1.244-2.782,1.185-4.617,1.244-5.506c0.059-0.889-0.138-2.132-0.671-2.547c1.321,0,2.21-2.131,2.032-3.316
		c0.999-1.168,1.164-3.828-1.026-4.184s-4.282-1.604-5.525-1.07c-0.711,0-1.56,1.229-1.265,2.176
		c-1.578-4.027-11.67-22.78-28.541-24.101c0.118-0.06-0.178-3.257-0.178-3.257s1.6-0.414,3.79-3.139
		c1.243,2.31,9.69,2.905,11.724-3.257c2.073-6.276,0.06-6.839-0.414-6.839s-2.962,2.025-4.305,1.473
		c-1.342-0.552-2.583-0.965-2.583-3.333c0-4.743,0.458-3.29,0.458-6.05c2.843,0.079,4.537-2.896,4.773-4.711
		c0.236-1.816,0.492-6.237-3.139-8.053c3.947-1.816,4.391-4.737,4.391-7.105c0-2.369-3.211-10.58-10.949-10.422
		c-2.922,0-1.883,1.737-1.646,2.685s-0.832,2.452-1.889,1.026c-0.733-0.991-3.857-2.844-6.945-3.474
		c-4.212-0.859-9.709-0.947-13.973,0.158C167.432,24.286,160.951,25.917,164.109,34.917z"/>
	<path d="M162.691,181.689c-7.225,4.264-9.475,9.238-8.408,10.422c1.065,1.185,5.921,0.592,12.908-8.408
		C163.164,182.992,162.691,181.689,162.691,181.689z"/>
	<path d="M200.164,182.88c-0.947,0.947-0.287,2.837,2.318,3.192c2.605,0.354,2.725,0.947,5.211,2.842
		c2.488,1.895,5.518,1.66,7.699,1.895c2.18,0.234,1.895-1.42,0-2.014c-1.896-0.592-6.502-3.318-7.699-5.447
		C207.102,182.295,200.164,182.88,200.164,182.88z"/>
	<path d="M169.441,181.689c-0.271,0.969-3.932,0.914-6.395-1.184c-2.465-2.098-2.08-19.723,2.302-27.775
		c1.54,1.895,1.493,4.959,2.327,4.486c0.699-0.396,0.582-2.766-1.432-6.082c-1.497-2.465-1.066-23.804,1.658-27.949
		c2.724,3.908,25.186,10.58,31.146-2.131c4.216,3.81,4.264,13.146,4.026,17.408c-0.237,4.264,0.414,13.212,0.414,13.212
		c1.107,1.292,1.243,4.435,1.007,6.804c-0.474,2.367,2.295,19.033,3.079,22.264c0.474,1.185-6.051,1.066-7.821,0.355
		c-1.771-0.711-5.916-11.132-6.271-16.343s1.422-9.237-0.711-12.08c-2.131-2.843-6.514-12.08-7.697-13.382
		c-0.236-2.25,2.724-4.027,1.006-5.566c-2.605,6.454-8.526,17.053-11.961,21.554C174.475,161.557,173.113,168.545,169.441,181.689z"
		/>
	<path d="M171.691,117.146c-1.776,0.947-3.316,3.078-3.553,5.329c3.197,4.026,13.975,5.093,17.054,5.093s10.468-1.291,13.429-7.33
		c0-1.658-1.704-3.803-1.704-3.803c-0.632,1.975-2.927,3.916-3.874,4.389c-0.948,0.475-2.402,0.547-2.561-3.244
		c-0.193-4.639,0.039-12.633,0.039-12.633c1.619-3.867,1.737-9.789,0.672-11.684c-1.066-1.895-3.041-6.198-1.619-6.791
		c1.422-0.592,4.199-4.801,4.145-6.631c-1.876-0.58-2.678-0.641-3.151-0.522c-0.592,3.198-7.585,10.802-16.586-0.118
		c-2.013-0.38-3.396,0.324-3.396,0.324c0.947,5.211,5.25,10.619,13.422,9.435c5.527,10.066,2.25,13.653,1.658,15.277
		c0.119,2.808-0.129,14.148,0.188,17.148C181.59,123.518,172.561,119.713,171.691,117.146z"/>
	<path d="M172.165,116.791c0.96,2.012,6.72,5.211,12.399,4.264c0.786-0.158-0.162-12.476,0.628-16.424
		c-2.967,1.863-5.525,1.746-7.343,1.422c-1.531-0.273-8.053-2.763-6.158-10.975c0.316-1.578,1.343-0.553,0.947,0.316
		c-1.122,3.949,1.422,13.5,12.633,7.934c2.685-3.275,0.449-10.813-1.892-13.303c-4.815,0.554-11.372-2.21-13.583-10.184
		c-8.346,0-19.027,17.368-19.106,19.026c0.868,1.896,0.395,1.751,0,2.257c0.631,1.06,0.631,2.243,0,2.875
		c0.302,0.947,0,1.658,0,2.053c1.895,1.342,0.71,8.053,0.71,8.053l1.975,0.316c0.316-5.053,10.027-15.238,12.475-16.422
		c1.104-0.316,0.226-1.77-0.248-2.717c-0.937-2.021,0.131-3.317,0.721-1.152c0.711,2.605,2.211,6.711,6.316,11.448
		C176.587,110.238,174.177,115.257,172.165,116.791z"/>
	<path d="M194.844,80.137c-0.563,0.678-0.354,3.701-4.203,6.691c-0.191,0.148-1.562,0.717,0.178,3.612
		c0.434,0.665,1.879,2.884,2.013,5.565c0.105,2.121,0.592,4.093-1.776,9.416c0.116,4.263-0.544,11.73,0.118,13.383
		c0.337,0.838,0.89,2.012,2.783,0.592c0.948-0.711,2.428-2.725,2.428-3.672c-0.875-1.566-1.277-2.812-1.125-4.855
		c0.106-1.427,0.415-3.908,1.836-5.922c-2.73,0-3.763-0.375-3.612-0.947c0.178-0.672,1.895,0.355,4.145-0.059
		c2.264-0.417,5.626-3.908,5.862-8.053c-4.085-1.777-5.685-4.027-5.329-6.514c0.355-2.487,1.316-1.718,1.066,0.117
		c-0.236,1.73,2.664,5.627,4.914,5.508c0.592,2.369-0.474,4.79-1.065,5.533c-0.593,0.744,0.056,1.099,1.065,1.572
		c1.012,0.474,6.277,7.283,8.054,12.968c0.355,1.421,0.933,0.955,2.25,0.06c1.48-1.007,2.605,0.651,2.724-0.474
		c0.415-2.665,0.947-5.448,2.014-6.396s1.303-1.775,0.592-3.316C219.062,103.408,211.543,84.4,194.844,80.137z"/>
	<path d="M175.664,79.842c-0.98-1.114-0.104-1.186,0.449-2.369c0.553-1.185,0-4.027,0.789-4.737c0.789-0.711,2.588,0.94,3.592,1.271
		c1.385,0.453,5.885,1.519,8.725,0.545c1.135-0.388,0.982,0.678,0.729,1.247s-0.195,2.735-0.334,3.538
		C189.266,81.371,183.38,88.604,175.664,79.842z"/>
	<path d="M136.124,125.648c1.261-1.748,3.552,0.38,4.855,1.92c1.303,1.539,3.237,3.355,2.29,4.619
		c-1.11,1.479-4.072,0.703-5.448-0.395C135.867,130.232,134.914,127.326,136.124,125.648z"/>
	<path d="M143.686,116.553c-1.88-0.73-5.198-1.268-5.47,0.87c-0.108,0.847,0.265,1.382,0.938,1.837
		c0.134,0.427-0.128,0.747-0.063,1.121c-0.958-0.282-1.386-0.124-1.744,0.674c-0.846,1.887,1.262,2.439,3.553,4.895
		c1.579,1.693,4.581,2.646,5.369,0.973c0.673-1.429-1.161-2.885-2.748-4.131c-0.495-0.388-0.548-0.484-1.306-0.938
		c-0.545-0.628-1.019-1.332-0.427-1.793c0.446,0.213,1.125,1.047,1.601,1.324c2.003,1.16,3.875,1.5,4.142-0.33
		C147.761,119.491,145.566,117.282,143.686,116.553z"/>
	<path d="M229.07,130.684c-0.845-1.131-2.704-0.846-4.238,0.463c-1.533,1.311-3.186,3.016-2.453,4.415
		c0.857,1.639,3.285,0.767,4.737-0.592C228.941,133.262,229.707,131.535,229.07,130.684z"/>
	<path d="M224.641,120.196c1.973-0.418,5.334-0.415,5.26,1.739c-0.03,0.853-0.92,1.5-1.659,1.843
		c-0.2,0.398-0.214,0.886-0.339,1.243c0.992-0.125,1.703,0.363,1.723,1.236c0.024,1.087-1.926,1.979-4.559,3.561
		c-1.295,0.778-3.693,1.42-4.404,0.118c-0.757-1.387-0.049-2.638,1.717-3.612c0.551-0.305,1.727-0.977,2.547-1.303
		c0.639-0.531,1.517-0.989,1.006-1.539c-0.474,0.139-1.48,0.928-1.995,1.125c-2.163,0.823-3.481,0.902-3.452-0.947
		C220.51,122.08,222.668,120.615,224.641,120.196z"/>
	<path d="M216.162,124.488c0.324-0.392,3.721,1.007,4.199,1.185s1.07,0.474,0.241,1.126c-0.829,0.65-1.421,3.15-0.829,3.885
		c0.592,0.732,2.725,0.852,3.316,0.793c0.592-0.061,0.651,0.059,0,0.65c-0.651,0.593-2.25,2.547-1.836,4.475
		c0.154,0.717-5.507,0.264-7.639-1.454C213.023,134.614,214.74,126.205,216.162,124.488z"/>
	<path d="M150.69,123.535c-0.233-0.453-3.896,0.045-4.402,0.117c-0.505,0.07,0.086,0.527,0.757,1.34
		c0.672,0.812,0.098,2.636-0.639,3.227c-0.734,0.591-2.039,0.658-2.604,0.475c-0.566-0.185-0.792,0.586-0.281,1.303
		s0.932,3.008-0.614,4.566c-0.516,0.52,5.325,1.431,7.773,0.207C151.372,134.374,151.713,125.516,150.69,123.535z"/>
	<path d="M154.152,116.617c-1.224-1.598-3.809-1.436-3.809-1.436c-0.361-0.564,0.154-2.471,0.366-5.012
		c0.316-3.782-2.356-5.385-2.29-5.695c0.1-0.464,1.395-0.195,1.48-1.146s-1.615-0.657-1.301-2.104
		c0.111-0.514,1.598,0.23,1.183-1.073c-0.249-0.782-1.549-0.582-2.384-0.644c-0.835-0.061-2.936-0.351-3.523,0.868
		c-0.554,1.152,2.238,0.72,2.277,1.103c0.143,1.425-1.933,0.77-1.937,1.85c-0.007,2.574,2.487,1.262,2.487,2.212
		c0,0.89-0.697,0.536-1.066,0.829c-1.717,1.361-1.786,4.389-1.689,4.912c0.564,3.082,0.112,2.667,0.15,3.614
		c0.004,0.098,0.085,0.208,0.211,0.327c1.565,0.562,2.804,0.069,3.515-0.053c0.769-0.133,1.98,0.359,1.012,0.739
		c-0.579,0.228-2.556,0.44-3.435,0.468c0.783,0.713,3.037,2.664,2.547,5.98c0.27,0.981,2.486-0.504,3.389,0.401
		c0.303,0.302,1.129,7.446,0.174,12.373c-0.798,1.159-5.857,1.55-9.157,0.286c-0.47-0.346-0.362,1.666,0,2.23
		c0.362,0.563,6.647,3.539,13.564-1.195C156.304,127.797,156.146,119.218,154.152,116.617z"/>
	<path d="M227.59,102.994c-0.313-1.316-2.428-1.48-3.257-1.6c-0.829-0.117-2.844-1.209-3.315,0.061
		c-0.838,2.249,1.776,0.836,1.776,1.361c0,1.48-2.014,0.888-2.132,1.836c-0.119,0.947,0.948,1.064,0.947,1.539
		c0,0.318-1.836,2.546-2.783,4.914c-0.947,2.369-0.236,4.501-0.711,4.975c0,0-2.664-0.889-4.026,0.592s-7.165,10.659-5.743,18.771
		c4.043,6.352,13.027,4.5,13.5,4.026c0.475-0.474,0.475-2.072-0.059-1.835c-3.494,0.533-8.527-1.008-9.061-2.311
		c0.117-5.018,2.547-11.712,2.806-12.051c0.77-1.008,3.886,1.939,4.36,1.037c0.295-4.382,4.5-4.855,5.238-5.151
		c0.739-0.296,0.595-0.946,0.327-1.243c-0.354-0.395-0.884-0.405-1.342-0.316c-0.56,0.066-1.599,0.076-1.974,0.08
		c-1.158,0.009-1.5-0.06-2.487-0.415c-0.572-0.206,0.105-1.21,1.095-0.942c0.772,0.211,1.48,0.367,3.051,0.35
		c0.592-0.414,0.346-0.747,0.947-1.835c1.243-2.25,0.699-5.978,0.059-6.573c-0.345-0.32-0.305-1,0.324-0.979
		c0.916,0.03,1.809-0.737,1.985-1.804c0.178-1.065-2.428-0.533-1.985-1.895C225.25,103.22,227.887,104.237,227.59,102.994z"/>
	<path d="M153.928,65.787c0.789,3.947,2.763,6.869,5.921,5.527c0.947-0.395-1.737-3.632-0.79-3.869
		c0.947-0.237,0.711,3.553,6.001,6.553c5.132,2.922,10.974-0.314,12.237-3.078s0.711-6.632,0-6.869
		c-0.711-0.237-0.992,2.21-2.074,2.684c-1.084,0.473-5.505,0.362-5.9-2.7c-0.395-3.063,1.422-4.563,2.843-6.064
		c1.421-1.5,2.132-5.21-0.632-6.869c-2.764-1.658-5.368-4.658-3.789-7.974c1.578-3.316,2.763-4.105,3.395-4.263s1.027,1.895,3,2.605
		c1.975,0.711,6.316,1.658,10.105-2.132c3.791-3.79,9.317-6.079,13.344-3.237c0.868,0.869-0.079,1.185-1.264,0.632
		c-1.184-0.553-4.422-1.579-5.053-0.632c-0.631,0.948,5.698,3.395,7.35,15.238c0.23,1.263,1.729,0.552,3.309-0.947
		c1.58-1.5,2.054-6.79-1.736-8.605c-1.579-0.553-0.625-2.016,2.289-3.316c2.915-1.301,3.386-7.837-1.578-11.606
		c-4.965-3.769-6.182-2.73-5.922-1.342c0.475,2.526-0.947,4.737-6.475,5.605c-2.763,0.237-6.158-0.79-3.553-1.658
		c0.554-0.097,2.29,0.947,4.975,0.236c2.685-0.71,2.131-0.789,0.868-2.053c-1.263-1.263-5.685-3.302-9.001-3.348
		s-11.764-0.362-14.29,2.164s-4.185,6.395-1.263,8.764c0.867,0.868-0.168,0.715-2.842,0.947
		c-6.391,0.554-13.344,10.342-7.139,18.446c6.408,8.366,1.848,10.924,0.348,11.082S153.608,64.275,153.928,65.787z"/>
	<path d="M195.792,69.123c1.007-1.244,2.635-3.878,2.575-6.839c-0.059-1.125,0.8-1.095,1.154-0.029
		c0.355,1.066,2.951,3.089,5.912,0.839c0.947-0.947,0.812,0.583,0.635,2.655s-1.928,5.27-5.658,5.744
		C196.68,71.965,195.792,69.123,195.792,69.123"/>
	<path d="M198.621,55.208c-0.086-2.369-2.893-15.633-8.674-18.475c-1.834-0.869-5.771,3.869-7.755,4.816
		c-1.983,0.947-6.158,2.447-10.185-0.553c-1.343-2.685-3.336,1.895-3.869,3.158c-0.533,1.264,0.316,4.444,3.395,5.921
		c3.08,1.478,3.636,5.779,2.527,7.027c-3.158,3.553-5.662,6.468-3,8.369c2.762,1.974,4.974-0.316,5.763-2.526
		c0.284-0.799,1.185-0.711,1.579,0.473c0.396,1.185,1.005,5.425-0.474,8.126c-0.257,0.47,8.843,4.98,14.369,0.479
		C197.825,67.524,198.707,57.577,198.621,55.208z M194.488,50.648c0.178,1.185-0.65,1.54-1.361,1.303
		c-0.711-0.237-1.77,0.682-1.895,0.404c-0.296-0.661,1.006-1.174,1.641-1.708C193.507,50.115,194.311,49.464,194.488,50.648z
		 M189.947,46.799c1.107-2.31,4.068-0.6,3.416,0C191.114,46.212,189.693,47.51,189.947,46.799z M189.684,58.938
		c0.994-0.77-1.184-5.357-0.761-6.099c0.71-1.243,2.665,5.566,2.428,6.514c-0.236,0.947-2.587,2.146-2.844,2.026
		C187.205,60.774,188.39,59.939,189.684,58.938z M178.323,47.549c-0.395-0.079,0.948-2.921,2.605-2.921
		c1.658,0,3.394,2.759,3.079,2.921c-0.385,0.197-2.325-1.944-3.272-1.747C179.787,46,178.719,47.628,178.323,47.549z
		 M182.326,54.911c-0.813,0.088-1.599-0.983-1.753-2.394c-0.155-1.411,0.379-2.627,1.192-2.716c0.814-0.089,1.6,0.982,1.754,2.394
		C183.674,53.605,183.141,54.822,182.326,54.911z M194.488,62.669c-0.967,0.447-1.507,2.098-1.717,3.827
		c-0.474,3.898-3.146,4.689-6.276,3.634c-3.665-1.236-3.988-4.507-4.737-6.218c-0.291-0.666-1.61-0.487-1.776-0.77
		c-0.595-1.011,3.883-1.932,3.327-0.948c0,0-0.434,0.415,0.071,0.888c0.505,0.474,1.339,0.296,4.714,0.237
		c4.531-0.08,7.343-2.168,7.698-1.54C196.147,62.41,195.259,62.313,194.488,62.669z"/>
	<path d="M182.675,64.09c0.532,2.546,4.058,4.293,6.07,4.234c2.014-0.059,2.369-1.567,2.369-1.783
		c-1.776,0.179-1.776,0.179-1.659-0.059c0.119-0.237,3.316,0.015,3.08-2.273c0-0.948-1.007-0.421-1.007-0.421
		C189.041,64.735,183.029,64.386,182.675,64.09z"/>
</g>
</svg>
