<?xml version="1.0" encoding="utf-8"?>
<!-- Generator: Adobe Illustrator 16.0.0, SVG Export Plug-In . SVG Version: 6.00 Build 0)  -->
<!DOCTYPE svg PUBLIC "-//W3C//DTD SVG 1.1//EN" "http://www.w3.org/Graphics/SVG/1.1/DTD/svg11.dtd">
<svg version="1.1" xmlns="http://www.w3.org/2000/svg" xmlns:xlink="http://www.w3.org/1999/xlink" x="0px" y="0px" width="288px"
	 height="216px" viewBox="0 0 288 216" enable-background="new 0 0 288 216" xml:space="preserve">
<g id="Layer_4" display="none">
	<g id="jtd337.tif" display="inline" opacity="0.5">
		
			<image overflow="visible" width="208" height="243" id="Layer_0_1_" xlink:href="A034D60EEBFA507E.png"  transform="matrix(0.7933 0 0 0.7933 0 15.1177)">
		</image>
	</g>
</g>
<g id="Layer_3">
	<path fill="none" stroke="#FF0000" stroke-width="0.25" stroke-miterlimit="10" d="M88.495,62.014
		c0.271,0.126,2.751-1.139,3.001-2.139S89.684,51.688,88.934,53c-0.447,0.783,1.853,5.625,0.803,6.438
		C88.372,60.494,87.122,61.375,88.495,62.014z"/>
	<path fill="none" stroke="#FF0000" stroke-width="0.25" stroke-miterlimit="10" d="M88.059,64.062
		c-3.562,0.062-4.443,0.25-4.976-0.25s-0.076-0.938-0.076-0.938c0.587-1.039-4.139-0.066-3.511,1
		c0.175,0.298,1.567,0.109,1.875,0.812c0.791,1.805,1.131,5.258,5,6.562c3.304,1.114,6.125,0.28,6.625-3.835
		c0.222-1.826,0.791-3.568,1.812-4.04c0.812-0.375,1.75-0.273,1.375-0.938S92.841,63.979,88.059,64.062z M89.497,67.399
		c-0.125,0.251-0.125,0.251,1.75,0.062c0,0.228-0.375,1.819-2.5,1.882s-5.845-1.781-6.407-4.469c0.375,0.312,6.72,0.681,9.345-0.319
		c0,0,1.062-0.556,1.062,0.444C92.997,67.415,89.622,67.148,89.497,67.399z"/>
	<path fill="none" stroke="#FF0000" stroke-width="0.25" stroke-miterlimit="10" d="M83.747,47.417c0.332-0.17-1.5-3.083-3.25-3.083
		s-3.167,3-2.75,3.083s1.545-1.635,2.545-1.844S83.34,47.625,83.747,47.417z"/>
	
		<ellipse transform="matrix(-0.109 -0.994 0.994 -0.109 38.3999 139.3996)" fill="none" stroke="#FF0000" stroke-width="0.25" stroke-miterlimit="10" cx="81.676" cy="52.49" rx="2.713" ry="1.564"/>
	<path fill="none" stroke="#FF0000" stroke-width="0.25" stroke-miterlimit="10" d="M93.622,46.625c0.688-0.633-2.438-2.438-3.606,0
		C89.747,47.375,91.247,46.006,93.622,46.625z"/>
	<path fill="none" stroke="#FF0000" stroke-width="0.25" stroke-miterlimit="10" d="M91.372,52.49c0.131,0.293,1.25-0.677,2-0.427
		s1.625-0.125,1.438-1.375s-1.037-0.562-1.706,0S91.059,51.792,91.372,52.49z"/>
	<path fill="none" stroke="#FF0000" stroke-width="0.25" stroke-miterlimit="10" d="M130.997,133.125
		c3.312-2.125,2.125-4.5,1.25-4.875c2.188-2.688,0.688-5.25-1.125-5.688s-2.625-0.5-2.625-0.5c0.116-1.131-0.812-2.438-1.25-2.062
		c1.312-2.938,1.25-4.875,1.312-5.812s-0.145-2.25-0.708-2.688c1.395,0,2.333-2.25,2.145-3.5c1.054-1.233,1.229-4.042-1.083-4.417
		s-4.52-1.692-5.832-1.129c-0.75,0-1.647,1.296-1.334,2.296c-1.667-4.25-16.062-25-30.125-25.438
		c0.125-0.062-0.188-3.438-0.188-3.438s1.688-0.438,4-3.312c1.312,2.438,10.228,3.066,12.375-3.438
		c2.188-6.625,0.062-7.219-0.438-7.219s-3.416,2.594-4.832,2.011c-1.417-0.583-3.04-1.333-3.04-3.833c0-3.185,0-6.417,0-6.417
		c3,0.083,5.873-3.166,6.123-5.083s0.521-6.583-3.312-8.5c4.167-1.917,4.634-5,4.634-7.5s-3.39-11.167-11.557-11
		c-3.083,0-1.988,1.833-1.738,2.833s-0.879,2.588-1.993,1.083c-0.774-1.045-4.072-3.002-7.33-3.667
		c-4.446-0.907-10.248-1-14.748,0.167c-3.326,0.862-10.165,2.583-6.832,12.083C51.33,33.417,51.162,43.891,50.8,48.841
		c-0.632,8.651,8.03,10.742,5.521,14.289C54.528,65.663,50.914,65,50.914,65c-1.684,4.125,2.771,11.438,8.833,9.375
		c4.312,4.938,11.875,3.375,14.125,2.25c0.625-0.75,0.75,2.25,0,2.875s-14.438-4.125-26.375,21.25c0,0-5.75-0.625-6.625,0.375
		s-0.5,3.562-0.25,4.312c-0.938,1.688-0.312,2.75,0.562,3.5c-1.562,1.562-0.915,8.125-0.812,9.25
		c-3.398-0.75-7.75,1.188-5.875,4.938c-2.625,0.5-1.377,4.125-0.501,4.75c-3.874,0.75-2.499,7.375,0.126,9
		c2.375,1.75,3.375,1.875,4.125,1.875c-0.125,1.875-0.5,4.312,0.5,4.812c1.107,0.554,9.75,3.562,16.625-1.812l-0.312-18.562
		c-0.125-1.5-1.312-4.062-2.875-4.75c1.125-2.938,10.188-15.688,13-15.75c1.25,0.062,7.375,9,7.25,11.75s-5.438,6.438-7.25,11.375
		s-2.854,9.104-1.771,30.688c-3.75,3.5-5.084,15.667-5.167,18.75s0.583,10.667,1.25,12.5c-2.917,0.917-10.125,7.188-8.438,13.188
		c0.91,3.233,12.542-0.271,15.875-8.938c2.388-0.671,3.811-2.314,3.729-4.917c-0.128-4.095,2.867-12.499,3.725-16.583
		s0.167-6.562,0.108-8.562c0.555-0.54,7.883-11.646,8.312-14.938c0.25-1.917,2.25-1.438,2.25-0.438s5.854,12.52,6.854,13.854
		s-0.083,9.5,0.333,12.5s4.458,15.167,7.125,17.084c-0.125,3.329,0.128,3.685,1.544,4.519s3.331-0.103,4.331,0.814
		s4.333,3.917,7.083,4.417s6.583,0.333,7.167-1.417s-1.583-2.75-4.25-4s-4.416-2.249-5.083-4.833c0.333-0.667,0-3.75-0.75-5.417
		s-3.167-14.5-2.667-17.333s-0.083-8.501-1.25-11.167c1.167-4.166,0.5-19.083-0.667-23.833s-2.583-7.833-5.083-11
		s-4.292-7.375-2.083-10.834c0.312-0.601,0.604-1.625,0.667-2.125s2.333-0.333,4.333-2.708c4.375,2.25,10.083,14.229,9.833,15.667
		s-5.25,14.375-4.5,20.25c2.438,4,11.125,8.188,16.938,4.188c0.875-0.562,0.75-2.5,0.75-2.5s1.375,0.125,3.312-0.938
		s5-5.312,4.062-6.938S130.997,133.125,130.997,133.125z M132.185,125.93c-0.031,0.9-0.971,1.584-1.75,1.945
		c-0.212,0.421-0.226,0.935-0.357,1.312c1.046-0.132,1.796,0.383,1.817,1.305c0.026,1.147-2.032,2.088-4.811,3.758
		c-1.368,0.822-3.899,1.5-4.649,0.125c-0.798-1.464-0.052-2.784,1.812-3.812c0.582-0.321,1.822-1.031,2.688-1.375
		c0.674-0.562,1.602-1.044,1.062-1.625c-0.5,0.146-1.562,0.979-2.106,1.188c-2.284,0.869-3.675,0.952-3.644-1
		c0.026-1.667,2.305-3.214,4.387-3.655C128.716,123.653,132.263,123.656,132.185,125.93z M123.059,141.41
		c0.163,0.756-5.812,0.277-8.062-1.535c-0.625-0.562,1.188-9.438,2.688-11.25c0.343-0.414,3.928,1.062,4.433,1.25
		s1.13,0.5,0.255,1.188s-1.5,3.326-0.875,4.101s2.875,0.899,3.5,0.837s0.688,0.062,0,0.688S122.622,139.375,123.059,141.41z
		 M92.497,73.25C86.663,78,77.059,73.239,77.33,72.744c1.56-2.851,0.917-7.327,0.5-8.577s-1.366-1.343-1.667-0.5
		c-0.833,2.333-3.167,4.75-6.083,2.667c-2.809-2.006-0.167-5.083,3.167-8.833c1.17-1.316,0.583-5.857-2.667-7.417
		s-4.146-4.917-3.583-6.25s2.667-6.167,4.083-3.333c4.25,3.167,8.657,1.583,10.75,0.583s6.25-6,8.185-5.083
		c6.102,3,9.065,17,9.155,19.5S98.33,68.5,92.497,73.25z M90.015,77.232c-0.269,0.601-0.206,2.887-0.352,3.734
		c-0.368,2.147-6.58,9.783-14.724,0.533c-1.035-1.175-0.11-1.25,0.474-2.5s0-4.25,0.833-5s2.731,0.993,3.792,1.341
		c1.461,0.479,6.21,1.603,9.208,0.576C90.444,75.507,90.284,76.631,90.015,77.232z M100.122,62.938
		c0.375,1.125,3.114,3.261,6.239,0.886c1-1,0.858,0.614,0.67,2.802s-2.034,5.562-5.972,6.062s-4.875-2.5-4.875-2.5
		c1.062-1.312,2.781-4.094,2.719-7.219C98.84,61.781,99.747,61.812,100.122,62.938z M63.747,75.333
		c-5.583-3.167-5.333-7.167-6.333-6.917s1.833,3.667,0.833,4.083c-3.333,1.417-5.417-1.667-6.25-5.833
		c-0.336-1.596,1.25,0.084,2.833-0.083s6.397-2.866-0.367-11.697c-6.55-8.553,0.789-18.885,7.533-19.469
		c2.823-0.245,3.917-0.083,3-1c-3.083-2.5-1.333-6.583,1.333-9.25s11.583-2.333,15.083-2.284s8.167,2.201,9.5,3.534
		s1.917,1.417-0.917,2.167s-4.666-0.352-5.25-0.25c-2.75,0.917,0.833,2,3.75,1.75c5.833-0.917,7.333-3.25,6.833-5.917
		c-0.275-1.465,1.01-2.562,6.25,1.417s4.743,10.877,1.667,12.25s-4.083,2.917-2.417,3.5c4,1.917,3.5,7.5,1.833,9.083
		s-3.25,2.333-3.493,1c-1.743-12.5-8.424-15.083-7.757-16.083s4.083,0.083,5.333,0.667s2.25,0.25,1.333-0.667
		c-4.25-3-10.083-0.583-14.083,3.417s-8.583,3-10.667,2.25s-2.5-2.917-3.167-2.75s-1.917,1-3.583,4.5s1.083,6.667,4,8.417
		s2.167,5.667,0.667,7.25s-3.417,3.167-3,6.4s5.083,3.35,6.227,2.85s1.44-3.083,2.19-2.833s1.333,4.333,0,7.25
		S69.163,78.417,63.747,75.333z M34.497,125c0.377-0.842,0.83-1.009,1.84-0.711c-0.068-0.395,0.208-0.732,0.067-1.183
		c-0.711-0.481-1.104-1.045-0.991-1.939c0.288-2.256,3.79-1.689,5.774-0.919s4.301,3.103,4.06,4.752
		c-0.283,1.932-2.259,1.574-4.373,0.349c-0.503-0.292-1.219-1.173-1.69-1.397c-0.625,0.486-0.125,1.229,0.45,1.892
		c0.799,0.479,0.856,0.581,1.378,0.991c1.675,1.314,3.611,2.852,2.9,4.359c-0.832,1.766-4,0.76-5.667-1.026
		C35.829,127.575,33.604,126.992,34.497,125z M44.732,129.156c-0.708-0.857-1.332-1.339-0.798-1.414
		c0.533-0.076,4.399-0.602,4.646-0.124c1.08,2.091,0.72,11.44-0.011,11.857c-2.584,1.292-8.749,0.331-8.205-0.218
		c1.632-1.646,1.187-4.062,0.648-4.82c-0.539-0.757-0.301-1.569,0.296-1.375c0.597,0.194,1.975,0.123,2.75-0.5
		C44.835,131.938,45.441,130.015,44.732,129.156z M34.997,136.334c-2.062-1.646-3.068-4.715-1.791-6.485
		c1.331-1.845,3.75,0.401,5.125,2.026s3.417,3.542,2.417,4.875C39.575,138.312,36.449,137.493,34.997,136.334z M52.235,120.316
		c2.104,2.745,2.27,11.8,1.862,20.937c-7.301,4.997-13.935,1.856-14.317,1.262c-0.382-0.596-0.496-2.719,0-2.354
		c3.483,1.335,8.823,0.922,9.666-0.302c1.007-5.2,0.135-12.74-0.183-13.06c-0.953-0.956-3.292,0.612-3.578-0.424
		c0.519-3.499-1.86-5.56-2.688-6.312c0.928-0.028,3.014-0.253,3.625-0.493c1.022-0.401-0.257-0.921-1.067-0.78
		c-0.75,0.129-2.059,0.648-3.71,0.056c-0.133-0.125-0.218-0.242-0.222-0.345c-0.041-1,0.438-0.562-0.159-3.814
		c-0.102-0.554-0.029-3.748,1.784-5.186c0.389-0.309,1.125,0.064,1.125-0.875c0-1.003-2.633,0.382-2.625-2.334
		c0.003-1.141,2.194-0.448,2.043-1.952c-0.041-0.405-2.988,0.052-2.403-1.164c0.619-1.287,2.837-0.98,3.718-0.917
		c0.881,0.064,2.253-0.146,2.516,0.679c0.438,1.375-1.13,0.591-1.248,1.133c-0.333,1.526,1.464,1.217,1.373,2.22
		c-0.091,1.004-1.457,0.721-1.562,1.209c-0.071,0.329,2.75,2.02,2.417,6.012c-0.224,2.683-0.768,4.693-0.386,5.289
		C48.215,118.801,50.943,118.631,52.235,120.316z M71.747,108.666c-4.333-5-5.917-9.333-6.667-12.083
		c-0.624-2.286-1.75-0.917-0.761,1.215c0.5,1,1.428,2.535,0.261,2.868c-2.583,1.25-12.833,12-13.167,17.334l-2.083-0.334
		c0,0,1.25-7.083-0.75-8.5c0-0.417,0.319-1.166,0-2.167c0.667-0.667,0.667-1.917,0-3.034c0.417-0.534,0.917-0.382,0-2.382
		C48.664,99.833,59.938,81.5,68.747,81.5C71.08,89.917,78,92.834,83.083,92.25c2.471,2.627,4.83,10.583,1.997,14.041
		c-11.833,5.875-14.519-4.206-13.333-8.375c0.417-0.917-0.667-2-1-0.333c-2,8.667,4.884,11.294,6.5,11.583
		c1.918,0.343,4.618,0.467,7.75-1.5c-0.833,4.167,0.167,17.167-0.662,17.334c-5.996,1-12.074-2.377-13.088-4.5
		C73.37,118.881,75.914,113.583,71.747,108.666z M52.372,200c-1.125-1.25,1.25-6.5,8.875-11c0,0,0.5,1.375,4.75,2.125
		C58.622,200.625,53.497,201.25,52.372,200z M116.872,196.5c2,0.625,2.301,2.372,0,2.125s-5.5,0-8.125-2s-2.75-2.625-5.5-3
		s-3.448-2.369-2.448-3.369c0,0,7.323-0.617,7.948,0.494C110.01,192.996,114.872,195.875,116.872,196.5z M103.872,143.375
		c-0.25,4.5,0.438,13.944,0.438,13.944c1.168,1.364,1.312,4.681,1.062,7.181c-0.5,2.5,2.422,20.09,3.25,23.5
		c0.5,1.25-6.387,1.125-8.256,0.375s-6.244-11.75-6.619-17.25s1.5-9.75-0.75-12.75s-6.875-12.75-8.125-14.125
		c-0.25-2.375,2.875-4.25,1.062-5.875c-2.75,6.812-9,18-12.625,22.75c0.375,6.625-1.062,14-4.938,27.875
		c-0.285,1.021-4.149,0.964-6.75-1.25s-2.195-20.816,2.43-29.316c1.625,2,1.576,5.234,2.456,4.735
		c0.739-0.419,0.614-2.919-1.511-6.419c-1.58-2.602-1.125-25.125,1.75-29.5c2.875,4.125,26.583,11.167,32.875-2.25
		C104.072,129.021,104.122,138.875,103.872,143.375z M99.17,124.139c-3.125,6.375-10.924,7.736-14.174,7.736s-14.625-1.125-18-5.375
		c0.25-2.375,1.875-4.625,3.75-5.625c0.917,2.709,10.447,6.725,14.947,4.475c-0.333-3.166-0.072-15.136-0.197-18.1
		c0.625-1.714,4.083-5.5-1.75-16.125c-8.625,1.25-13.167-4.458-14.167-9.958c0,0,1.458-0.744,3.583-0.342
		c9.5,11.526,16.881,3.5,17.506,0.125c0.5-0.125,1.346-0.061,3.327,0.55c0.057,1.933-2.875,6.375-4.375,7s0.583,5.167,1.708,7.167
		s1,8.25-0.708,12.333c0,0-0.245,8.438-0.042,13.334c0.167,4,1.702,3.924,2.702,3.424s3.423-2.549,4.089-4.633
		C97.372,120.125,99.17,122.389,99.17,124.139z M104.997,105c-1.067-0.5-1.75-0.875-1.125-1.66s1.75-3.34,1.125-5.84
		c-2.375,0.125-5.436-3.986-5.188-5.812c0.264-1.938-0.75-2.75-1.125-0.125s1.312,5,5.625,6.875c-0.25,4.375-3.798,8.06-6.188,8.5
		c-2.375,0.438-4.188-0.647-4.375,0.062c-0.16,0.604,0.931,1,3.812,1c-1.5,2.125-1.825,4.744-1.938,6.25
		c-0.161,2.156,0.264,3.472,1.188,5.125c0,1-1.562,3.125-2.562,3.875c-1.999,1.499-2.583,0.26-2.938-0.625
		c-0.699-1.744-0.002-9.626-0.125-14.125c2.5-5.618,1.986-7.7,1.875-9.938c-0.141-2.832-1.667-5.173-2.125-5.875
		c-1.835-3.056-0.39-3.656-0.188-3.812c4.063-3.156,3.842-6.348,4.438-7.062c17.625,4.5,25.562,24.562,26.312,26.188
		s0.5,2.5-0.625,3.5s-1.688,3.938-2.125,6.75c-0.125,1.188-1.312-0.562-2.875,0.5c-1.391,0.945-2,1.438-2.375-0.062
		C111.622,112.688,106.063,105.5,104.997,105z M123.684,144.438c-0.5,0.5-9.983,2.454-14.25-4.25
		c-1.5-8.562,4.625-18.25,6.062-19.812s4.25-0.625,4.25-0.625c0.5-0.5-0.25-2.75,0.75-5.25s2.937-4.852,2.938-5.188
		c0.001-0.5-1.125-0.625-1-1.625s2.25-0.375,2.25-1.938c0-0.555-2.759,0.938-1.875-1.438c0.498-1.338,2.625-0.188,3.5-0.062
		s3.107,0.298,3.438,1.688c0.312,1.312-2.469,0.238-2.595,0.625c-0.467,1.438,2.283,0.875,2.095,2s-1.129,1.936-2.095,1.903
		c-0.664-0.022-0.706,0.696-0.342,1.034c0.676,0.628,1.25,4.562-0.062,6.938c-0.635,1.148-0.375,1.5-1,1.938
		c-1.657,0.019-2.404-0.147-3.219-0.369c-1.044-0.283-1.76,0.776-1.156,0.994c1.042,0.375,1.404,0.447,2.625,0.438
		c0.396-0.003,1.493-0.015,2.083-0.084c0.484-0.094,1.042-0.083,1.417,0.334c0.282,0.313,0.435,1-0.345,1.312
		s-5.217,0.812-5.53,5.438c-0.5,0.952-3.789-2.158-4.602-1.096c-0.274,0.358-2.837,7.425-2.961,12.721
		c0.562,1.375,5.875,3,9.562,2.438C124.184,142.25,124.184,143.938,123.684,144.438z M129.247,139.688
		c-1.533,1.434-4.095,2.354-5,0.625c-0.772-1.478,0.971-3.277,2.589-4.66c1.619-1.382,3.582-1.683,4.473-0.489
		C131.981,136.062,131.174,137.885,129.247,139.688z"/>
</g>
</svg>
