<?xml version="1.0" encoding="utf-8"?>
<!-- Generator: Adobe Illustrator 16.0.0, SVG Export Plug-In . SVG Version: 6.00 Build 0)  -->
<!DOCTYPE svg PUBLIC "-//W3C//DTD SVG 1.1//EN" "http://www.w3.org/Graphics/SVG/1.1/DTD/svg11.dtd">
<svg version="1.1" xmlns="http://www.w3.org/2000/svg" xmlns:xlink="http://www.w3.org/1999/xlink" x="0px" y="0px" width="288px"
	 height="216px" viewBox="0 0 288 216" enable-background="new 0 0 288 216" xml:space="preserve">
<g id="Layer_4" display="none">
	<g id="jtd337.tif" display="inline" opacity="0.5">
		
			<image overflow="visible" width="208" height="243" id="Layer_0_1_" xlink:href="D9A185C19B011BE5.png"  transform="matrix(0.7933 0 0 0.7933 0 15.1177)">
		</image>
	</g>
</g>
<g id="Layer_3">
	<path fill="none" stroke="#FF0000" stroke-miterlimit="10" d="M62.75,34.083c-11.417-0.667-11.585,9.807-11.947,14.758
		c-0.632,8.651,8.03,10.742,5.521,14.289C54.532,65.663,50.917,65,50.917,65c-1.684,4.125,2.771,11.438,8.833,9.375
		c4.312,4.938,11.875,3.375,14.125,2.25c0.625-0.75,0.75,2.25,0,2.875S59.438,75.375,47.5,100.75c0,0-5.75-0.625-6.625,0.375
		s-0.5,3.562-0.25,4.312c-0.938,1.688-0.312,2.75,0.562,3.5c-1.562,1.562-0.915,8.125-0.812,9.25
		c-3.398-0.75-7.75,1.188-5.875,4.938c-2.625,0.5-1.377,4.125-0.501,4.75c-3.874,0.75-2.499,7.375,0.126,9
		c2.375,1.75,3.375,1.875,4.125,1.875c-0.125,1.875-0.5,4.312,0.5,4.812c1.107,0.554,9.75,3.562,16.625-1.812l-0.312-18.562
		c-0.125-1.5-1.312-4.062-2.875-4.75c1.125-2.938,10.188-15.688,13-15.75c1.25,0.062,7.375,9,7.25,11.75s-5.438,6.438-7.25,11.375
		s-2.854,9.104-1.771,30.688c-3.75,3.5-5.084,15.667-5.167,18.75s0.583,10.667,1.25,12.5c-2.917,0.917-10.125,7.188-8.438,13.188
		c0.91,3.233,12.542-0.271,15.875-8.938c2.388-0.671,3.811-2.314,3.729-4.917c-0.128-4.095,2.867-12.499,3.725-16.583
		s0.167-6.562,0.108-8.562c0.555-0.54,7.883-11.646,8.312-14.938c0.25-1.917,2.25-1.438,2.25-0.438s5.854,12.52,6.854,13.854
		s-0.083,9.5,0.333,12.5s4.458,15.167,7.125,17.084c-0.125,3.329,0.128,3.685,1.544,4.519s3.331-0.103,4.331,0.814
		s4.333,3.917,7.083,4.417s6.583,0.333,7.167-1.417s-1.583-2.75-4.25-4s-4.416-2.249-5.083-4.833c0.333-0.667,0-3.75-0.75-5.417
		s-3.167-14.5-2.667-17.333s-0.083-8.501-1.25-11.167c1.167-4.166,0.5-19.083-0.667-23.833s-2.583-7.833-5.083-11
		s-4.292-7.375-2.083-10.834c0.312-0.601,0.604-1.625,0.667-2.125s2.333-0.333,4.333-2.708c4.375,2.25,10.083,14.229,9.833,15.667
		s-5.25,14.375-4.5,20.25c2.438,4,11.125,8.188,16.938,4.188c0.875-0.562,0.75-2.5,0.75-2.5s1.375,0.125,3.312-0.938
		s5-5.312,4.062-6.938S131,133.125,131,133.125c3.312-2.125,2.125-4.5,1.25-4.875c2.188-2.688,0.688-5.25-1.125-5.688
		s-2.625-0.5-2.625-0.5c0.116-1.131-0.812-2.438-1.25-2.062c1.312-2.938,1.25-4.875,1.312-5.812s-0.145-2.25-0.708-2.688
		c1.395,0,2.333-2.25,2.145-3.5c1.054-1.233,1.229-4.042-1.083-4.417s-4.52-1.692-5.832-1.129c-0.75,0-1.647,1.296-1.334,2.296
		c-1.667-4.25-16.062-25-30.125-25.438c0.125-0.062-0.188-3.438-0.188-3.438s1.688-0.438,4-3.312
		c1.312,2.438,10.228,3.066,12.375-3.438c2.188-6.625,0.062-7.219-0.438-7.219s-3.417,2.594-4.833,2.011
		c-1.417-0.583-3.042-1.333-3.042-3.833c0-3.185,0-6.417,0-6.417c3,0.083,5.875-3.166,6.125-5.083s0.521-6.583-3.312-8.5
		c4.167-1.917,4.635-5,4.635-7.5s-3.39-11.167-11.557-11c-3.083,0-1.988,1.833-1.738,2.833s-0.879,2.588-1.993,1.083
		c-0.774-1.045-4.072-3.002-7.33-3.667c-4.446-0.907-10.248-1-14.748,0.167C66.256,22.862,59.417,24.583,62.75,34.083z"/>
	<path d="M61.25,189c-7.625,4.5-10,9.75-8.875,11s6.25,0.625,13.625-8.875C61.75,190.375,61.25,189,61.25,189z"/>
	<path d="M100.802,190.256c-1,1-0.302,2.994,2.448,3.369s2.875,1,5.5,3s5.824,1.753,8.125,2s2-1.5,0-2.125s-6.862-3.504-8.125-5.75
		C108.125,189.639,100.802,190.256,100.802,190.256z"/>
	<path d="M68.375,189c-0.285,1.021-4.149,0.964-6.75-1.25s-2.195-20.816,2.43-29.316c1.625,2,1.576,5.234,2.456,4.735
		c0.739-0.419,0.614-2.919-1.511-6.419c-1.58-2.602-1.125-25.125,1.75-29.5c2.875,4.125,26.583,11.167,32.875-2.25
		c4.45,4.021,4.5,13.875,4.25,18.375s0.438,13.944,0.438,13.944c1.168,1.364,1.312,4.681,1.062,7.181
		c-0.5,2.5,2.422,20.09,3.25,23.5c0.5,1.25-6.387,1.125-8.256,0.375s-6.244-11.75-6.619-17.25s1.5-9.75-0.75-12.75
		s-6.875-12.75-8.125-14.125c-0.25-2.375,2.875-4.25,1.062-5.875c-2.75,6.812-9,18-12.625,22.75
		C73.688,167.75,72.25,175.125,68.375,189z"/>
	<path d="M70.75,120.875c-1.875,1-3.5,3.25-3.75,5.625c3.375,4.25,14.75,5.375,18,5.375s11.049-1.361,14.174-7.736
		c0-1.75-1.799-4.014-1.799-4.014c-0.667,2.084-3.089,4.133-4.089,4.633s-2.536,0.576-2.702-3.424
		C90.38,116.438,90.625,108,90.625,108c1.708-4.083,1.833-10.333,0.708-12.333s-3.208-6.542-1.708-7.167s4.432-5.067,4.375-7
		c-1.981-0.611-2.827-0.675-3.327-0.55c-0.625,3.375-8.006,11.401-17.506-0.125c-2.125-0.401-3.583,0.342-3.583,0.342
		c1,5.5,5.542,11.208,14.167,9.958c5.833,10.625,2.375,14.411,1.75,16.125c0.125,2.964-0.136,14.934,0.197,18.1
		C81.197,127.6,71.667,123.584,70.75,120.875z"/>
	<path d="M71.25,120.5c1.014,2.123,7.092,5.5,13.088,4.5c0.829-0.167-0.171-13.167,0.662-17.334c-3.132,1.967-5.832,1.843-7.75,1.5
		c-1.616-0.289-8.5-2.916-6.5-11.583c0.333-1.667,1.417-0.583,1,0.333c-1.185,4.169,1.5,14.25,13.333,8.375
		c2.833-3.458,0.474-11.414-1.997-14.041c-5.083,0.584-12.003-2.333-14.337-10.75c-8.808,0-20.083,18.333-20.167,20.083
		c0.917,2,0.417,1.848,0,2.382c0.667,1.118,0.667,2.368,0,3.034c0.319,1,0,1.75,0,2.167c2,1.417,0.75,8.5,0.75,8.5L51.417,118
		c0.333-5.334,10.583-16.084,13.167-17.334c1.167-0.333,0.239-1.868-0.261-2.868c-0.989-2.132,0.138-3.501,0.761-1.215
		c0.75,2.75,2.333,7.083,6.667,12.083C75.917,113.583,73.374,118.881,71.25,120.5z"/>
	<path d="M95.188,81.812c-0.595,0.714-0.374,3.907-4.438,7.062c-0.202,0.157-1.648,0.757,0.188,3.812
		c0.458,0.702,1.984,3.043,2.125,5.875c0.111,2.237,0.625,4.319-1.875,9.938c0.123,4.499-0.574,12.381,0.125,14.125
		c0.355,0.885,0.938,2.124,2.938,0.625c1-0.75,2.562-2.875,2.562-3.875c-0.923-1.653-1.349-2.969-1.188-5.125
		c0.113-1.506,0.438-4.125,1.938-6.25c-2.882,0-3.972-0.396-3.812-1c0.188-0.709,2,0.375,4.375-0.062
		c2.389-0.44,5.938-4.125,6.188-8.5c-4.312-1.875-6-4.25-5.625-6.875s1.389-1.812,1.125,0.125c-0.249,1.826,2.812,5.938,5.188,5.812
		c0.625,2.5-0.5,5.056-1.125,5.84s0.058,1.16,1.125,1.66s6.625,7.688,8.5,13.688c0.375,1.5,0.984,1.008,2.375,0.062
		c1.562-1.062,2.75,0.688,2.875-0.5c0.438-2.812,1-5.75,2.125-6.75s1.375-1.875,0.625-3.5S112.812,86.312,95.188,81.812z"/>
	<path d="M74.943,81.5c-1.035-1.175-0.11-1.25,0.474-2.5s0-4.25,0.833-5s2.731,0.993,3.792,1.341
		c1.461,0.479,6.21,1.603,9.208,0.576c1.197-0.41,1.037,0.714,0.769,1.315s-0.206,2.887-0.352,3.734
		C89.299,83.114,83.087,90.75,74.943,81.5z"/>
	<path d="M33.209,129.849c1.331-1.845,3.75,0.401,5.125,2.026s3.417,3.542,2.417,4.875c-1.172,1.562-4.298,0.743-5.75-0.416
		C32.938,134.688,31.932,131.619,33.209,129.849z"/>
	<path d="M41.19,120.248c-1.984-0.771-5.486-1.337-5.774,0.919c-0.114,0.895,0.28,1.458,0.991,1.939
		c0.142,0.45-0.135,0.788-0.067,1.183c-1.011-0.298-1.463-0.131-1.84,0.711c-0.893,1.992,1.332,2.575,3.75,5.167
		c1.667,1.786,4.834,2.792,5.667,1.026c0.71-1.508-1.226-3.045-2.9-4.359c-0.522-0.41-0.579-0.513-1.378-0.991
		c-0.575-0.662-1.075-1.405-0.45-1.892c0.471,0.225,1.187,1.105,1.69,1.397c2.114,1.226,4.089,1.583,4.373-0.349
		C45.492,123.351,43.175,121.019,41.19,120.248z"/>
	<path d="M131.312,135.163c-0.892-1.193-2.854-0.893-4.473,0.489c-1.619,1.383-3.362,3.183-2.589,4.66
		c0.905,1.729,3.467,0.809,5-0.625C131.177,137.885,131.984,136.062,131.312,135.163z"/>
	<path d="M126.637,124.095c2.083-0.441,5.63-0.438,5.551,1.835c-0.031,0.9-0.971,1.584-1.75,1.945
		c-0.212,0.421-0.226,0.935-0.357,1.312c1.046-0.132,1.796,0.383,1.817,1.305c0.026,1.147-2.032,2.088-4.811,3.758
		c-1.368,0.822-3.899,1.5-4.649,0.125c-0.798-1.464-0.052-2.784,1.812-3.812c0.582-0.321,1.822-1.031,2.688-1.375
		c0.674-0.562,1.602-1.044,1.062-1.625c-0.5,0.146-1.562,0.979-2.106,1.188c-2.284,0.869-3.675,0.952-3.644-1
		C122.276,126.083,124.555,124.536,126.637,124.095z"/>
	<path d="M117.688,128.625c0.343-0.414,3.928,1.062,4.433,1.25s1.13,0.5,0.255,1.188s-1.5,3.326-0.875,4.101s2.875,0.899,3.5,0.837
		s0.688,0.062,0,0.688s-2.375,2.688-1.938,4.723c0.163,0.756-5.812,0.277-8.062-1.535
		C114.375,139.312,116.188,130.438,117.688,128.625z"/>
	<path d="M48.583,127.618c-0.247-0.478-4.113,0.048-4.646,0.124c-0.533,0.075,0.09,0.557,0.798,1.414
		c0.708,0.858,0.103,2.782-0.673,3.406c-0.775,0.623-2.153,0.694-2.75,0.5c-0.598-0.194-0.835,0.618-0.296,1.375
		c0.539,0.758,0.984,3.175-0.648,4.82c-0.544,0.549,5.62,1.51,8.205,0.218C49.303,139.059,49.663,129.709,48.583,127.618z"/>
	<path d="M52.238,120.316c-1.292-1.686-4.02-1.516-4.02-1.516c-0.382-0.596,0.162-2.606,0.386-5.289
		c0.333-3.992-2.488-5.683-2.417-6.012c0.105-0.489,1.472-0.206,1.562-1.209c0.091-1.003-1.706-0.694-1.373-2.22
		c0.118-0.542,1.686,0.242,1.248-1.133c-0.263-0.826-1.635-0.615-2.516-0.679c-0.881-0.064-3.099-0.37-3.718,0.917
		c-0.585,1.216,2.362,0.759,2.403,1.164c0.15,1.504-2.04,0.812-2.043,1.952c-0.008,2.716,2.625,1.331,2.625,2.334
		c0,0.939-0.736,0.566-1.125,0.875c-1.812,1.438-1.885,4.632-1.784,5.186c0.596,3.252,0.118,2.814,0.159,3.814
		c0.004,0.103,0.089,0.22,0.222,0.345c1.651,0.593,2.96,0.073,3.71-0.056c0.811-0.141,2.09,0.379,1.067,0.78
		c-0.611,0.24-2.697,0.465-3.625,0.493c0.827,0.753,3.207,2.813,2.688,6.312c0.286,1.036,2.625-0.532,3.578,0.424
		c0.318,0.319,1.19,7.859,0.183,13.06c-0.842,1.224-6.183,1.637-9.666,0.302c-0.496-0.364-0.382,1.759,0,2.354
		c0.382,0.595,7.016,3.735,14.317-1.262C54.508,132.116,54.343,123.062,52.238,120.316z"/>
	<path d="M129.75,105.938c-0.331-1.389-2.562-1.562-3.438-1.688s-3.002-1.276-3.5,0.062c-0.884,2.375,1.875,0.883,1.875,1.438
		c0,1.562-2.125,0.938-2.25,1.938s1.001,1.125,1,1.625c0,0.336-1.938,2.688-2.938,5.188s-0.25,4.75-0.75,5.25
		c0,0-2.812-0.938-4.25,0.625s-7.562,11.25-6.062,19.812c4.267,6.704,13.75,4.75,14.25,4.25s0.5-2.188-0.062-1.938
		c-3.688,0.562-9-1.062-9.562-2.438c0.124-5.296,2.687-12.362,2.961-12.721c0.812-1.062,4.102,2.048,4.602,1.096
		c0.312-4.625,4.75-5.125,5.53-5.438s0.627-0.999,0.345-1.312c-0.375-0.417-0.932-0.428-1.417-0.334
		c-0.591,0.069-1.687,0.081-2.083,0.084c-1.221,0.01-1.583-0.062-2.625-0.438c-0.604-0.218,0.112-1.277,1.156-0.994
		c0.815,0.222,1.562,0.388,3.219,0.369c0.625-0.438,0.365-0.789,1-1.938c1.312-2.375,0.739-6.31,0.062-6.938
		c-0.364-0.338-0.322-1.057,0.342-1.034c0.966,0.032,1.908-0.778,2.095-1.903s-2.562-0.562-2.095-2
		C127.281,106.176,130.062,107.25,129.75,105.938z"/>
	<path d="M52,66.667c0.833,4.167,2.917,7.25,6.25,5.833c1-0.417-1.833-3.833-0.833-4.083s0.75,3.75,6.333,6.917
		c5.417,3.083,11.583-0.333,12.917-3.25s0.75-7,0-7.25s-1.047,2.333-2.19,2.833s-5.81,0.383-6.227-2.85s1.5-4.816,3-6.4
		s2.25-5.5-0.667-7.25s-5.667-4.917-4-8.417s2.916-4.333,3.583-4.5s1.084,2,3.167,2.75S80,42.75,84,38.75s9.833-6.417,14.083-3.417
		C99,36.25,98,36.583,96.75,36s-4.667-1.667-5.333-0.667s6.015,3.583,7.757,16.083c0.243,1.333,1.826,0.583,3.493-1
		s2.167-7.166-1.833-9.083c-1.667-0.583-0.66-2.127,2.417-3.5s3.573-8.271-1.667-12.25s-6.525-2.881-6.25-1.417
		c0.5,2.667-1,5-6.833,5.917c-2.917,0.25-6.5-0.833-3.75-1.75c0.584-0.102,2.417,1,5.25,0.25s2.25-0.833,0.917-2.167
		s-6-3.485-9.5-3.534S69,22.5,66.333,25.167s-4.417,6.75-1.333,9.25c0.917,0.917-0.177,0.755-3,1
		c-6.745,0.584-14.083,10.917-7.533,19.469c6.764,8.831,1.95,11.53,0.367,11.697S51.664,65.07,52,66.667z"/>
	<path d="M96.188,70.188c1.062-1.312,2.781-4.094,2.719-7.219c-0.062-1.188,0.844-1.156,1.219-0.031s3.114,3.261,6.239,0.886
		c1-1,0.858,0.614,0.67,2.802s-2.034,5.562-5.972,6.062S96.188,70.188,96.188,70.188"/>
	<path d="M99.174,55.5C99.083,53,96.121,39,90.019,36c-1.935-0.917-6.092,4.083-8.185,5.083s-6.5,2.583-10.75-0.583
		c-1.417-2.833-3.521,2-4.083,3.333s0.333,4.69,3.583,6.25s3.837,6.1,2.667,7.417c-3.333,3.75-5.976,6.827-3.167,8.833
		C73,68.417,75.333,66,76.167,63.667c0.301-0.843,1.25-0.75,1.667,0.5s1.06,5.726-0.5,8.577C77.062,73.239,86.667,78,92.5,73.25
		S99.264,58,99.174,55.5z M94.812,50.688c0.188,1.25-0.688,1.625-1.438,1.375s-1.869,0.72-2,0.427
		c-0.312-0.698,1.062-1.24,1.731-1.802S94.625,49.438,94.812,50.688z M90.019,46.625c1.169-2.438,4.294-0.633,3.606,0
		C91.25,46.006,89.75,47.375,90.019,46.625z M89.74,59.438c1.05-0.812-1.25-5.655-0.803-6.438c0.75-1.312,2.812,5.875,2.562,6.875
		s-2.731,2.265-3.001,2.139C87.125,61.375,88.375,60.494,89.74,59.438z M77.75,47.417c-0.417-0.083,1-3.083,2.75-3.083
		s3.582,2.913,3.25,3.083c-0.406,0.208-2.455-2.052-3.455-1.844S78.167,47.5,77.75,47.417z M81.975,55.187
		c-0.859,0.093-1.688-1.038-1.851-2.526c-0.164-1.489,0.4-2.773,1.259-2.867c0.859-0.094,1.687,1.037,1.851,2.526
		C83.397,53.808,82.834,55.093,81.975,55.187z M94.812,63.375c-1.022,0.472-1.591,2.214-1.812,4.04
		c-0.5,4.115-3.321,4.949-6.625,3.835c-3.869-1.305-4.209-4.757-5-6.562c-0.308-0.703-1.7-0.515-1.875-0.812
		c-0.627-1.066,4.098-2.039,3.511-1c0,0-0.457,0.438,0.076,0.938s1.413,0.312,4.976,0.25c4.782-0.084,7.75-2.289,8.125-1.625
		S95.625,63,94.812,63.375z"/>
	<path d="M82.343,64.875c0.562,2.688,4.282,4.531,6.407,4.469s2.5-1.654,2.5-1.882c-1.875,0.188-1.875,0.188-1.75-0.062
		S93,67.415,92.75,65c0-1-1.062-0.444-1.062-0.444C89.062,65.556,82.718,65.188,82.343,64.875z"/>
</g>
</svg>
