<?xml version="1.0" encoding="utf-8"?>
<!-- Generator: Adobe Illustrator 16.0.0, SVG Export Plug-In . SVG Version: 6.00 Build 0)  -->
<!DOCTYPE svg PUBLIC "-//W3C//DTD SVG 1.1//EN" "http://www.w3.org/Graphics/SVG/1.1/DTD/svg11.dtd">
<svg version="1.1" id="Layer_1" xmlns="http://www.w3.org/2000/svg" xmlns:xlink="http://www.w3.org/1999/xlink" x="0px" y="0px"
	 width="288px" height="216px" viewBox="288 756 288 216" enable-background="new 288 756 288 216" xml:space="preserve">
<g id="Layer_2" display="none">
	
		<image display="inline" overflow="visible" enable-background="new    " width="152" height="190" xlink:href="Black_Widow.png"  transform="matrix(1 0 0 1 356 769)">
	</image>
</g>
<g id="Layer_1_1_">
	<g>
		<path fill="#D04D9C" d="M434.033,816.25c0,0-1.601,4.997,2.774,5c1.571,0.001,3.035-1.25,3.035-1.25
			S434.854,817.951,434.033,816.25z"/>
		<path fill="#D04D9C" d="M453.25,800.543c0,0-0.5,0.125-2.75,0s-8.542-0.538-7.25-5.793c1.151-4.682-2.23-5.307-3.5,0
			c-5.25-2.625-7.375-0.375-6.713,5.793c-6.162,4.582-2.662,6.706,0,7.957C432,813.924,426,814.758,426,814.758
			s-0.125,5.617,4.125,8.742c6.125,4.75,9.25,2.875,13.75,0C455.25,817.25,453.25,800.543,453.25,800.543z M443.375,810.857
			c0.875,2.31,0.52,4.601,0.113,5.58c-0.443,1.069-3.646,0.271-4.549-0.312c-0.916-0.708,3.058,0.594,3.311-0.292
			C442.604,814.594,442.812,814.344,443.375,810.857z M442.812,806.625c-2.438-1.25-1.938-0.125-2.562,1.375
			c-0.755,1.812-0.875,2.062-1.688,2.062c-0.813,0-1.355-1.464-0.715-3.217c0.273-0.747,0.865-1.222,1.995-1.222
			c-0.144-0.298,0.819-1.777-2.969-3.312C439,801.625,440.188,802.438,442.812,806.625z M435.54,821.875
			c-2.461-0.114-3.109-2.224-2.118-7.951c3.287,4.383,6.422,4.951,10.494,6.639C441.359,821.88,437.75,821.977,435.54,821.875z
			 M449.667,810.062c0.161,1.153-1.083,3.729-2.208,3.438s-0.958-2.167,0.75-5c2.541-0.708,3.625-0.042,3.875,0.458
			C449.959,809.083,449.414,808.247,449.667,810.062z"/>
	</g>
	<path fill="none" stroke="#D04D9C" stroke-miterlimit="10" d="M492.135,923.334c-5.26-6.271-16.762-10.008-20.051-10.833
		c-1.381-2.715-8.084-6.438-8.084-6.438c0.242-5.431,0.438-6.375-4-6c-5.206,0.44-8.531,3.612-9.375-1
		c-1.146-6.268-2.75-9.25-2.75-9.25c0.75-2.084,0.312-8.242,0-9.875c1.61,0.375,2.612-0.822,3.625,0.062
		c1.503,1.312,6.25,3.256,6.25-0.391c-0.336-1.358,0.809-1.587,0.625-4.422c-0.25-1.75,0.721-4.257-1.553-7.007
		c-1.138-1.375-3.073-2.431-3.739-3.515c-0.666-1.083,0.667-0.665,2.917-0.666s3.979,1.141,5.312,2.725s5.466,1.552,6.854,0.857
		c1.781-0.889,0.708-3.582,0.708-3.582c6.639,1.688,7.562-3.5,5.875-6.75c-1.526-2.94-10.072-3.441-11.875-3.188
		c-1.388,0.387-2.691-1.345-3.875-3c2.649,0.137,9.013-1.855,14.191-4.125c3.684,3.625,7.184,4.188,8.684,3.312
		s1.938-1.75,1.125-4.188c3.75,0.75,4.492-3.688,2.625-5.562c-1.133-1.188-3.188-1.875-3.188-1.875s3.312-0.875,2.375-3.625
		c-0.959-2.812-3.502-2.639-4.625-2.562c-1.645,0.112-5.688,0.979-8.125,3.938c-2.938-2.959-6.642-1.162-7.049-0.738
		c-0.767,0.797-0.826,2.238-0.451,3.738c-2.5-0.125-6.293,0.082-9.062,0.938c-6.125-4.312-13.321-9.289-17.421-10.438
		c-0.268-2,2.561-2.438,4.856-2.75c8.022-1.209,8.044,0.02,10.188-1.209c3.125-1.791-0.628-4.479,0.762-6.104
		c7.176-1.688,8.818-5.117,8.426-8.59c1.482-3.972,0.08-4.498-0.062-6.047c2.75-3.862,3.25-14.675-0.904-15.57
		c-1.23-0.42-2.658-0.667-4.033,0.083c-1.938-6.875-7.74-10.047-10.492-10.938c-2.589-0.837-13.194-0.875-16.069,6.25
		c-7.75,0.25-12.375,7.138-13.25,10.944c-0.375,2.181,0.125,7.042-5,7.11c-3.184,8.167,3.375,12.779,11.125,13.112
		c0.875,1.5-0.733,7.141-1.875,8.833c-3.392,0.968-15.625-4.926-17.938-7.455c-0.479-2.712,0.167-9.287,0.688-10.583
		c0.521-1.296,2.345-0.663,4.191-0.781c2.62-0.167,2.198-4.431,2.17-6.307c1.472-0.043,3.013-7.5-0.945-8.875
		c-3.221-1.119-8.146-0.173-10.167,0.347c-2.614,0.673-7.396,6.402-6.562,32.402c0.667,2.333,5.331,6.17,7.562,7.901
		c-2.768,1.064-11.896-1.326-13.562-3.905c0.625-3.685-2.421-4.352-3.521-4.246c-2.416,0.229-3.833,1-3.833,1
		c-0.833-1.32-3.853-3.506-6.167-5.167c-2.729-1.958-7.417-1.458-5.5,3.667c1.032,2.76-1.382,1.92-1.854,1.938
		c-1.833,0.067-3.635,3.673-1.135,7.688c-1.553,2.75,2.947,5.375,9.76,2.322c0.351-0.157,1.121-0.056,1.638,0.17
		c6.189,5.428,12.215,7.966,15.799,7.633c-3.225,5.744-2.725,13.449-3,19.75c-2.75,5.125-2.25,9.875-1.374,11.822
		c-0.001,1.303,1.54,2.345,3.124,2.678c0.479,1.924,3.632,2.318,4.956,1.352c1.211-1.019,0.878-4.393,0.878-4.393
		s1.083,0.708,2.643,0c0.807-0.365,0.565-4.376-0.685-6.542c-1.229-2.127,0.374-7.959,1.167-12.5s8.307-7.153,10.667-6.667
		c0.674,3.239,0.75,5.322-0.167,6.083s-7.308,9.667-7.195,14.333c0.113,4.666-0.972,19-0.638,22.333
		c-4.401,5.625-4.664,11.829-5.178,14.75c-6.072,1.312-13.17,5.417-20.5,5.417c-6.322,0-8.697,11.188,0,9.458
		c-0.572,5.625,2.303,7.13,3.803,7.128c0.5,5.872,11.329,9.208,19.344,6.997c4.531,6.252,41.665,3.082,41.665,3.082
		c0,3.604,7.502,5.979,14.73,3.965c4.252-1.186,10.224-3.746,11.636-7.797c3.188,1.5,9.75,1.165,9.75,1.165l0.25,0.021
		c0,1.421,0.375,4.453-4.244,4.07c-4.756-0.395-6.756,4.867-1.131,6.367c-1.969,4.662,1.312,6.812,6.438,3.25
		c1.562,3.812,7.688,3,8,0.188c3.188,0.375,3.938-3.188,1.743-6.562C492.688,940.503,495.68,927.561,492.135,923.334z"/>
	<path fill="#D04D9C" d="M462.75,901.5c0.75,0.438,0.188,1.188,0.125,1.375s-3.656,4.188-3.656,4.188h-4.406l5.188-5.028
		C460,902.033,462,901.062,462.75,901.5z"/>
	<path fill="#D04D9C" d="M451.312,904.062c1.66-0.354,3.812-1.312,4.375-1.875c2.312-1.5,4.625-1.5,3.5-0.188
		s-5.334,4.148-6.188,4.625c-1.076,0.601-1.985,1.036-2.812,1.484c-1.875,1.016-2.562-0.984-2.312-1.734
		S450.207,904.298,451.312,904.062z"/>
	<path fill="#D04D9C" d="M446.5,870.167c-1.083-0.417-9.333-8.468-9.333-8.468s-1.938-2.232-1.584-6.116
		c0.335-3.667,2.917-2.356,3.834-1.845c0.917,0.511,10.916,11.61,10.916,11.61S447.083,867.334,446.5,870.167z"/>
	<path fill="#D04D9C" d="M447.188,876.375c-0.005,2.191-1.062,2.625-1.875,1.125c-0.771-1.021-2.359-6.121-3.812-7.833
		C445.25,870.167,447.195,872.812,447.188,876.375z"/>
	<path fill="#D04D9C" d="M456.625,871.188c1.5,1.312,0.844,3.906-1.812,0.625c-0.5-0.405-0.467,0.179-0.062,0.812
		c0.531,0.833,1.114,1.311,1.844,2.125c0.699,0.781,0.873,3-0.594,2.25c-1.461-0.747-2.25-3.688-2.812-3.188
		c-0.707,0.628,1.414,3.318,2.375,4.375c1.271,1.396,0.271,2.896-1.375,2.004c-1.661-0.901-3.014-6.158-3.014-5.066
		c0,2.562-2.788,3.9-2.611,1.688c0.312-3.938-0.688-7.062-0.688-7.062s1.668-2.625,3.084-3S455.515,870.216,456.625,871.188z"/>
	<path fill="#D04D9C" d="M462.75,856.417c3.917-2.083,9.062-0.909,10.667,2.167c1.5,2.875-0.542,4.458-1.417,2.25
		c-1.14-2.876-3.583-2.424-2.583-1.837s1.916,1.003,2.333,3.128c0.283,1.442-1.446,1.375-3.14-0.958
		c-1.694-2.333-2.569-2.085-1.193-0.625c0.748,0.794,0.94,1.411,0.625,2.333c-0.542,1.583-1.516-0.351-2.667-1.708
		c-1.167-1.375-0.02,1.305,1.375,2.583c1,0.917,0.833,3.542-1.542,3.167c-1.341-0.212-2.701-2.104-2.778-3.412
		c-0.138-2.344-0.831-1.877-0.555-1.088c0.113,0.324,0.833,3.542-1.042,1.583c-0.637-0.665-1.332-1.163-0.916-2.165
		S461.75,857.417,462.75,856.417z"/>
	<path fill="#D04D9C" d="M461.583,855.783c0.188,0.188-1.318,4-2.833,5.842c-3.562,0.562-13.75-1-18-9.312
		c1.375-0.625,2-4.188,2-6.562c4.625,3.562,5.062,4.125,7.375,6.75C451.188,852.5,459.646,854.283,461.583,855.783z"/>
	<path fill="#D04D9C" d="M468.081,836.178c2.362,0.524,2.794,3.569,4.544,2.072s6.112-4.239,8.5-4.25
		c3.312-0.015,2.567,2.863,0.562,3.125c-2.875,0.375-4.812,1.875-5.438,2.5c5-0.125,6.18,0.73,7.625,1.625
		c2.625,1.625,0.688,4.125-1.688,2.875c-2.375-1.25-5.062-1-5.688-0.875c3.25,1.875,4.403,1.887,5,4.125
		c0.5,1.875-1.688,2.875-3.562,1.312c-2.553-2.128-1.463-2.776-2.375-3.375c-2.188-1.438-4.438,1.188-4.625-2
		c1.503-0.172,2.062-1.027,2.062-1.027s-0.25-0.473-1.375-0.598s-1.646,1.188-3.125-0.75c-0.812-1.5-1.062-0.938-2.403-3.125
		C465.469,836.788,466.356,835.795,468.081,836.178z"/>
	<path fill="#D04D9C" d="M439.692,833.417c-0.109-0.083,10.619,5.896,13.692,8.833c0.329,0.314,12.197-1.417,13.114-1.25
		c0.417,0.167,3.25,2.083,3.917,3.583c-1.25,1.917-11.583,4.917-12.75,5.25s-3.501,0.333-5.042-0.583s-8.291-3.38-12.541-7.523
		c-0.834-0.477-1.283-0.56-0.392,1.44c0.891,2,2.975,4.417,0,8.322c-1.667,1.345-3.774,0.428-3.774,0.428
		c-0.166,0.833-4.418,6.167-4.418,6.167s6.25-7.917,3.333-20.917C435.75,837.25,439.302,834.75,439.692,833.417z"/>
	<path fill="#D04D9C" d="M461,810.917c-2.167,6-4.948,4.828-8.417,8.417c-2.603,2.693-0.7,3.73,0.167,3.667
		c1.137-0.083-0.036,3.723-6.203,1.973c-1.25-1.583,7.786-3.806,8.453-20.889C459.333,804.083,462.407,807.02,461,810.917z"/>
	<path fill="#D04D9C" d="M433.419,783.625c1.179-2.769,17.206-10.316,22.081,7.375c1,3.125,2.473,0.659,4.033,0.53
		c2.217-0.184,3.092,0.845,3.342,5.845s-2.25,6.375-5.875,5.375c-2.667-0.736-1.002-3.733,0.498-4.358s-0.881-0.434-8.543,0.456
		c-1.271-0.125-4.33-0.723-3.955-5.223c0.478-5.73-3.782-5.665-5.923-2.277c-0.875,1-0.952-0.973-4.827-4.223
		C432.869,785.966,432.78,785.125,433.419,783.625z"/>
	<path fill="#D04D9C" d="M416.75,812.375c-3.25-2.375-4.312-7.188-1.688-7.438c2.623-0.25,3.812-0.188,4.438-4.188
		s1.125-8.75,6.625-12.375s8.375,1.875,9.5,3.5c0,0-1.348,0.163-2.588,1.042c-1.644,1.165-1.4,6.677-1.15,6.615
		c-4.137,1.968-5.262,8.343-3.137,9.218c2.314,0.953,3.25,0.562,2.625,1.625C425.625,814.625,420,814.75,416.75,812.375z"/>
	<path fill="#D04D9C" d="M426.25,820.562c4.062,6.688,7.778,6.625,7.778,6.625l-0.826,3.246c-7.125,3.312-9.577-4.313-9.577-4.313
		L426.25,820.562z"/>
	<path fill="#D04D9C" d="M422.625,827.125c2.5,5.312,7.812,7.375,12.688,3.625l3.25,1.688c-3.392,5.312-13.938,6.125-18.625-5.312
		L422.625,827.125L422.625,827.125z"/>
	<path fill="#D04D9C" d="M410.683,795.5c0.938,3.188-2.114,2.709-2.25,1.688c-0.135-1.021-0.625-2.169-1.901-4.089
		C406.317,791.637,409.46,791.341,410.683,795.5z"/>
	<path fill="#D04D9C" d="M407.25,797.188c-0.188,3-2.5,1.625-2.25,0.625s-0.188-2.938-1.188-4.5
		C404.15,791.875,407.438,794.188,407.25,797.188z"/>
	<path fill="#D04D9C" d="M399.25,793.375c1.875-1.625,3.449-0.125,4.225,1.375c1.464,2.438,0.275,5.75-1.1,4.125
		s-1.25-2.625-2.188-2.875c-0.938-0.25-1.188,0.812-0.25,1c0.938,0.188,0.688,1.312,1.438,2.188c0.75,0.877,2.438,1,4.25,0.688
		s3.559,0.917,3.688,2.88c0.069,1.057-0.812,1.896-2.562,1.182c-1.564-0.637-0.5-1.862-2.625-1.993
		c-4.438,0-5.125-0.275-6.125-1.943S397.375,795,399.25,793.375z"/>
	<path fill="#D04D9C" d="M378.375,830.375c-0.75-1.125-1.55,0.213-0.75,0.894c1.375,1.169-0.562,3.044-1.875,2.147
		c-1.875-1.166-1.5-1.072-3,0.319c-1.5,1.391-2.125,1.266-4,1.141s-1.818-1.459-1-1.903c1.729-0.938,4.625-1.529,5.875-3.097
		c-0.375-0.441-2.375,0.133-5.125,0.315c-2.75,0.184-5-3.19-1.625-3.065s4.375-0.125,6.875,0s-2.75-2.75-3.875-4.5s0.125-3.125,3-1
		s6.125,5.5,6.125,5.5c4.062-2.688,5.543-2.002,5.972-1.438c1.091,1.438-0.618,1.821-1.972,2.375
		c-1.375,0.562-0.812,1.938-2.375,3.206C379.5,831.75,379.125,831.5,378.375,830.375z"/>
	<path fill="#D04D9C" d="M397.5,872.542c-0.917-1.792-2.625-1.959-2.417,0.083s0.542,3.499,0,4.208s-2.333,1.334-2.167-0.958
		c0.214-2.951,0.125-4.999-0.042-5.416c0,0-0.708-0.041-0.708,1.625s-0.038,3.133-1,3c-1.208-0.167-0.581-3.784-0.331-4.701
		s-0.502-1.55-0.585-0.383c-0.081,1.131-0.208,2.333-0.708,2.208c-1.7-0.425-0.958-3.958-0.792-4.791S391,864,391,864
		c1.625,1.5,2.375,2.125,6,1.35c-0.292,3.125,0.44,4.803,1.208,5.317C400.062,871.913,398.417,874.334,397.5,872.542z"/>
	<path fill="#D04D9C" d="M399.602,850.833c-2.268,3.667-1.769,11-3.102,13.167c-2.583,0-3.909-0.034-4.921-1.48
		c-1.212-1.731,0.004-11.937,0.671-13.77s1.431-5.601,3.75-5.5c2.875,0.125,17.585-0.375,16.875-2.5
		c1.5-0.833-6.708,0.583-8.875,0.417s-16.167,2.831-25-7.751c0-0.082,2.667-1.249,5-3.582c5.773,2.497,12.583,5.583,20.167,4.333
		c3.365,2.241,7.251,3.756,9.418,3.461c1.5-1.128-10.918-4.628-18.418-14.628c0,0-2-12.613,2-21.057
		c0.167,0.223,2.338,1.5,6.002,1.111c-0.502,2.111-2.502,13.444-1.336,15.611s10.619,7.27,16.75,7.735
		c0.333,6.042,5.889,9.558,8.208,10.599c0-0.128,2.458,7.833,0.208,13.667c0,0.5-5.75,1.958-8.917-4.458
		c-0.958-1.833-1.75-1.042-0.917,0.792s4.208,5.708,8.792,5.083c0.395,0.079-0.474,3.439-2.583,5.75
		c-0.875,0.958-7.854-1.628-10.375-3.167c0.082,0.333-1.233-4.574-0.521-10.127C410.875,844.507,402.37,848,399.602,850.833z"/>
	<path fill="#D04D9C" d="M412.333,855.583c0,0,5.871,4.435,11.833,3.503c2.363-3.439,3-6.92,3-6.92s3.833-0.583,3.75-2.833
		c-0.062,0.515-1.006,0.917-2.667,0.917c1.583-3.25,0.306-10.685-0.146-12.622c2.077,0.476,2.184,0.161,5.198,0.161
		c0.666,3,2.529,12.378-4.477,22.127c0.007,0,1.84,0.917,3.84-1.167c0-0.083,0.333,1,0.333,2s-3.25,4.251-9.833,4.584
		s-12.5-4.834-13.25-5.75L412.333,855.583z"/>
	<path fill="#D04D9C" d="M405.596,891.841c2.167-2.417,1.779-3.591-0.096-2.841c-0.333,0-3-27.271,3.5-28.167
		c6.167,6.5,17.432,8.611,25.028,1.833c2.639,3,7.011,9.999,8.907,13.333c1.563,3.667,2.438,0.625,3.188,14.875
		c0.166,0.666,2.5,4.125,3.36,12.285c0.001,0-0.568,1.674-3.735,2.84c-4.917-3.209-8.125-7.125-8.375-20.625
		c-7.396-3.5-13.983-8.125-14.625-10.125c-0.667-0.834,4.25-4.333,3.167-4c-4.583,2.667-2.583-1.75-3.942-2.583
		c-0.775-0.476-8.642,31.5-14.642,39.5c0.333,0.333,0,3,0,3H400C400,911.167,397.375,901,405.596,891.841z"/>
	<path fill="#D04D9C" d="M440.75,905.073c-13.5-0.552-25.875,3.302-28.5,4.802c-0.625-1.5,0-1.5-1.375-3.625
		c3.318-5.029,9.375-22.375,10.375-27.25h1.875c0,0,5.29,5.006,12.415,7.881C436.165,898.631,438.375,902.033,440.75,905.073z"/>
	<path fill="#D04D9C" d="M410.875,910.648c-0.042,0.019-2.042,0-2.042,0v-1.423C408.833,909.227,410.934,908.812,410.875,910.648z"
		/>
	<path fill="#D04D9C" d="M398.144,908.415c0.262,0.083,0.198,2.233,0.198,2.233l-3.188-0.773
		C395.978,907.312,397.005,907.521,398.144,908.415z"/>
	<path fill="#D04D9C" d="M376.625,919c-6.625,0-4.5-7.125,4.75-6.414C379.375,914.336,376.75,916.125,376.625,919z"/>
	<path fill="#D04D9C" d="M399.167,933.416c0,0-10.333,0.584-13.417-1.916c-2.749-2.229-3.906-4.466-2.332-6.065
		c1.166-1.185,2.582-0.602,5.666,2.981c1.917,1.25,2.802,2.627,3.167,0.738c0.534-2.764,3.01-3.839,6.916-3.154V933.416
		L399.167,933.416z"/>
	<path fill="#D04D9C" d="M390.917,921.734c1.167-0.228,2,1.691,3.333,3.386c-0.75,0.287-2.411,0.8-2.995,2.633
		C389.981,924.457,389.75,921.961,390.917,921.734z"/>
	<path fill="#D04D9C" d="M396,925.083c-0.185-3.774,0.833-3.333,1.5-3.333s1.667,0.333,1.667,3.333
		C399.083,925.166,396,925.083,396,925.083z"/>
	<path fill="#D04D9C" d="M394.125,922.875c-2.5-4.375-6.25-2.5-4.875,2.472c-2.095-2.125-7.625-3.097-7.875,0.903
		c-4-4.25-3.5-6.875,0-11.371s9.625-5.254,15.375-3.004c-9.5,1.875-11.75,3.004-9.25,3.893c4.625-0.889,12.102-4.018,24.25-3.23
		c-3.625,3.23-5,5.606-4.625,10.339c-4.172-0.17-4.172-0.438-6.906,1.625C400.219,921.125,398.125,918.389,394.125,922.875z"/>
	<path fill="#D04D9C" d="M441.341,919.254c-0.35,1.531-0.716,16.746-0.716,16.746c-12.875,1.043-28.875,2.25-39.25-2.375
		c-1.625-2-2.125-6.75,2.5-9.625c5.875,0.5,8.633,0.443,14,0c4.301-0.355,12.75-5.848,18.5-5.611c1.75,0.111,2.5-1.264-0.375-1.264
		s-11.438,1.89-16.375,4.625c-1.25,0.625-3.375,0.125-0.75-2.375s4.75-5.75,11.5-6.875c1.5,0-0.328-0.625-2.375-0.625
		c-3.083,0-10.333,5.967-12.625,9.375c0,0.125-3.125,1.125-7,0.625c0-0.125,1.375-10.75,12.75-12.625s22.75-1.65,25.25-1.138
		c1.25-0.112,1.938,1.013,1.938,1.013s-3.688,5.875-3.812,7.625C444.5,916.75,441.884,916.875,441.341,919.254z"/>
	<path fill="#D04D9C" d="M467.334,932.028c0.244-0.341,0-1.255,0-1.255s1.524,0.228,2.375-1.593c0.08-0.026,2.375,0.014,2.375,0.014
		S471.906,933.391,467.334,932.028z"/>
	<path fill="#D04D9C" d="M471.438,927.375c-0.038-1.737,0.188-3.06-0.816-3.391c-1.085-0.357,0.419,2.184-0.453,2.184
		c-2.122-0.917-1.542-1.071-2.542-0.821c-0.343,0.086-0.183,0.766,0.938,1.842c1.635,1.569-1.479,1.831-3.312,1.062
		c-3.605-1.514-5.709-4.738-6.042-6.071c-1.083-6.333-5.458-8.011-7.208-5.438s-2.667,3.179-2.917,1.595s-1.75-1.75-3.25-1.5
		c3.166-8.75,7.745-8.872,9.229-8.646c1.552,0.234,2.625,0.062,4.438-0.021c1.64-0.074,3.416-0.231,3.875,0.707
		c0.749,1.531,1.625,2.292,3.625,2.292s2.896,1.458,3.062,2.458c0.5,1.75-0.708,2.459,0.375,4.125s2.062,1.5,2.812,3.75
		C477.938,926.25,471.875,928.688,471.438,927.375z"/>
	<path fill="#D04D9C" d="M472.417,933.167c0,0,0.686-4.073,3.224-6.049c2.276-1.771-0.818-7.09-3.224-8.729
		c-2.174-1.481-2.547-4.806,2.602-2.972c5.149,1.834,10.564,4.084,13.648,7.584s6.834,8.917-2.166,17.5
		c0,0.083-1.083-2.251-6.917-2.917c1.27-2.916,2.684-5.874,2.917-9.5c-0.25-1-2.084,3.251-2.75,5.167
		C479.668,933.251,472.417,933.167,472.417,933.167z"/>
	<path fill="#D04D9C" d="M483.562,944.574c-1.125-0.5-1.312,0.801-0.181,1.676c3.806,2.812,0.076,7.562-4.049-0.188
		c-0.75-1.5-1.459-1.538-1.209,0.062c1.062,3.688-8.034,5.538-2.188-1c0.562-1.375,0.604-2.227,0-2.188
		c-2.028,0.132-6.594,0.75-5.03-1.375c1.104-1.502,4.598-0.047,5.973-0.297s1.746-2.391,1.746-2.391c3-0.125,4.968,0.7,7.438,2.938
		c-0.25,0.125-0.938,1.812-0.938,1.812C491.5,944.25,489.5,951.062,483.562,944.574z"/>
	<path fill="#D04D9C" d="M464,930.167c-0.5,1.747-0.062,2.768-1.112,1.416c-0.502-0.646,0-0.919-0.502-3.333
		c-2.583-0.75-5-5.25-5.303-8.166s-3.753-3.445-4.833-1.695s-1.917,4.052-3.25,3.969s-2.09-0.557-2.09-1.974
		c-0.04,0.091,2.007-1.3-0.243-1.995c-1.771-0.547-3.667-0.472-4.167,1.861c-1,10.25-0.521,14.333-0.354,14.417
		c3.688,6.593,6.152,6.334,8.542,6.334c1.229,0,2.532-0.917,3.118-1.334c2.253-0.333,8.277-0.084,11.944-6.042
		C467.167,930.333,464.5,928.42,464,930.167z M447.25,928.75l2.5-0.344l-0.008-3.327l1.258-0.2v3.152l2.906-0.031l-0.781,0.938
		l-2.071,0.221l0.196,2.468h-1.156l-0.062-2.312l-2.781,0.562L447.25,928.75L447.25,928.75z M450.271,939.999
		c0.188-2-1.604-1.136-1.604-1.136l-0.354-0.364c0.812-0.25,2.354-1.394,2.521,0S450.333,940.166,450.271,939.999z M454.812,937.749
		c0,0-2.229,0.333-3.562-0.167s-0.917-3.083-0.917-3.083c0.333-0.75,0.417,1.667,1.334,2.462s3.146,0,3.146,0L454.812,937.749
		L454.812,937.749z M451.25,923.125c1.125-2.073,2.938-2.25,4,0.302C454.688,922.354,452.25,922.448,451.25,923.125z
		 M462.875,934.094l-2.125,0.062c0,0,0.133,0.594-0.156,1.594c-0.039,0.25-1.031,0.031-1.031,0.031V934.5l-3.312,0.25v-1.042
		l3.5-0.125c0-1.335,0.104-1.75-0.188-2.614c-0.079-0.237,1.312,0.156,1.312,0.156s0.031,0.885-0.094,2.253c0,0,0.594,0.132,2.094,0
		C462.875,933.968,462.875,934.077,462.875,934.094z"/>
</g>
</svg>
