<?xml version="1.0" encoding="utf-8"?>
<!-- Generator: Adobe Illustrator 16.0.0, SVG Export Plug-In . SVG Version: 6.00 Build 0)  -->
<!DOCTYPE svg PUBLIC "-//W3C//DTD SVG 1.1//EN" "http://www.w3.org/Graphics/SVG/1.1/DTD/svg11.dtd">
<svg version="1.1" xmlns="http://www.w3.org/2000/svg" xmlns:xlink="http://www.w3.org/1999/xlink" x="0px" y="0px" width="288px"
	 height="216px" viewBox="0 0 288 216" enable-background="new 0 0 288 216" xml:space="preserve">
<g id="Layer_2">
	<path fill="none" stroke="#EC1E24" stroke-miterlimit="10" d="M102.877,96.417c5.166-9-5.167-17.167-8.917-21.917
		c-2.224-2.817-3.657-5.545-2.688-6.625c1.894-2.109,3.604-9.792,1.104-12.292c-3.303,1-6.834-1-1.834-6.333
		c2.834-2.667,5.334-21.167-6-21.334c-1.583-9.854-17.271-13.354-29.708-6.854c0,0-0.537-1.042-3.875-1.375
		c-3.271-0.326-9.375,3.562-4.734,18.435c-1.875,4.062,0.15,7.294,2.65,7.128c-0.667,2-0.26,7.936,0.146,10.688
		c-3.854-0.094-1.868,12.5-0.562,12.5c-8.312,6.375-17.415,17.976-17.417,22.979c-0.002,7.623,9.917,13.582,9.104,15.104
		c-0.688,1.021-5.75,7.167-5.783,18.729c-0.03,10.5,7.326,11.763,7.825,11.333c0.75-0.646-0.542-3.667-0.021-4.312
		s1.812-0.688,2.292,0.083s-0.292,7.481,0.208,11.147c-5.333,7.833-4.125,35.082-4.125,35.249c-5.167,2-8.167,10-4.667,10.833
		s13.833-2.167,14.667-8.166c8.167-42.833,13.167-44.5,13.167-44.5s8.667,0.333,8.667,0.167c7.5,6.334,12.021,42.902,13.118,46.922
		c0.715,2.619,14.339,6.633,15.882,4.744c2.146-2.625-1.667-7.188-7.479-10.25c2.438-26.168-2.651-34.169-3.151-37.502
		c10.422-0.666,12.756-8,13.256-10c0.535-2.144,8.13-8.005,9.333,3.667c1.667,16.167,5.333,16.667,11.125,9.96
		C136.21,123.875,120.314,109.792,102.877,96.417z M47.876,95.333c-0.75,0.124-3.583-2.791-3.667-3.667s2.958-3.791,4.083-3.75
		s1.583,0.959,1.583,1.75S48.626,95.209,47.876,95.333z"/>
</g>
<g id="Layer_3">
	<path d="M43.311,153.75c2.61,1.364,9.647,1.584,11.272,1.084c0.125,0.125-6.39,24.229-5.896,26.666
		c0.479,2.453-7.312,5.375-8.562,5.75s-5.28,1.454-3.688-2.249c1.146-2.667,6.438-4.751,6.813-4.751
		C42.625,176,41.436,158.375,43.311,153.75z"/>
	<path d="M92.031,153.75c-2.61,1.364-9.336,1.417-10.961,0.917c-0.125,0.125,5.43,23.416,5.514,27.416
		c0.083,2.333,8.083,5.23,9.333,5.605s5.759,1.431,4.167-2.272c-1.146-2.667-6.669-5.096-7.75-5.583
		C92.959,175.583,93.008,159.182,92.031,153.75z"/>
	<path d="M53.667,112.417c2-0.333,8.917,4.75,12,11.666c0.918,1.834-6.75,13.668-8.5,19.334s-2.496,8.917-2.581,10
		s-9.02,0.583-10.52-0.833s1.768-5.917,2.185-7.251s-0.417-15.917,1.333-22.5S51.667,112.75,53.667,112.417z"/>
	<path d="M81.75,112.417c-2-0.333-8.917,4.75-12,11.666c-0.918,1.834,6.75,13.668,8.5,19.334s2.733,8.667,2.818,9.75
		c0.086,1.083,8.576,0.999,10.076-0.417s-2.062-6.333-2.479-7.667c-0.416-1.334,0.002-15.166-1.25-21.75
		C86.145,116.641,83.75,112.75,81.75,112.417z"/>
	<path d="M67.526,125.292c1.708,0,3.419,6.68,2.933,7.375c-0.375,0.535-5.15,0.866-5.709-0.042
		C64.188,131.712,66.109,125.292,67.526,125.292z"/>
	<path d="M86.625,114.688c-0.641-1.008,9.125-11.5,10.188-11.562s12.146,18.438,11.583,19.812s-3.833,1.312-6.396,7.562
		c-0.893,2.177-5.625,9.938-11.938,8.438C89,118.625,88.062,118.688,86.625,114.688z"/>
	<path d="M97.938,101.562c0.312-1.438,1.625-2.812,2.438-2.75s25.052,18.312,26.188,28.438c1.641,14.628-7.736,22.776-9.188,16.812
		C115.25,119.438,97.625,103,97.938,101.562z"/>
	<path d="M44.875,111.5c0.528-0.812,4.562,2.188,4.438,2.875s-3.163,6.537-3.726,13.92c-0.062,1.195-1.899,0.643-2.524,0.143
		s-1.568-0.997-1.572-3.5C41.481,118.5,44.875,111.5,44.875,111.5z"/>
	<path d="M42.312,106.688c0.617-0.098,2.25,3,2.062,3.438s-6.384,11.125-4.134,22.625c0.438,1.75-3.613-1.293-4.116-7.458
		S41.125,106.875,42.312,106.688z"/>
	<path d="M55.125,111.403c1.071-2.111,3.458-2.57,2.375-6.403c3.911,0.898,14.584,1,20.084,0c-0.75,4.75,2.479,4.542,2.479,6.854
		c-2.584,0.701-9.131,6.917-10,9.917c-0.75,2.188-3.358,1.95-4.32,0.197C64.65,119.979,59.5,113.216,55.125,111.403z"/>
	<path d="M91.512,106.188c0,0.564-4.209,5.532-5.137,6.214s-2.959,0.404-3.209-1.04c-1.465-0.169-1.832-0.974-1.666-1.861
		c-0.907,0.292-2.541-0.566-2.709-1.375c-0.541-2.625,0.864-2.875,1.271-2.875c-0.291-1.512,1.322-2.805,2.239-3.055
		c1.782,0.471,4.278,0.25,4.944-0.083C88.086,102.112,91.072,105.638,91.512,106.188z"/>
	<path d="M43.674,106.686c0,0.564,4.314,5.034,5.242,5.716s2.917,0.471,3.083-1.04c1.465-0.169,2.168-0.974,2.002-1.861
		c0.907,0.292,2.542-0.566,2.708-1.375c0.542-2.625-0.864-2.875-1.271-2.875c0.291-1.512-1.323-2.805-2.239-3.055
		c-1.782,0.471-5.117,0.333-5.784,0C47.333,102.195,43.674,106.686,43.674,106.686z"/>
	<path d="M56.833,99.881c5.229,2.07,18.898,1.182,20.917-0.318c1.104-0.812,1.875,3.062,0.25,3.812s-16.521,2-21.167,0.375
		C55.208,103.209,55.125,98.875,56.833,99.881z"/>
	<path d="M42.812,105.375c0.689,0.046,4.125-3.688,4.188-4.875s-6.562-6.938-6.125-9.5s6.985-5.438,7.062-6.938
		c0.125-2.438,2.316-9.375,5.5-9.688C54,74.422,53.688,75.125,53,75.5c-1.875,1.25-8.077,11.561,2.11,14.186
		c-0.417-6.062,4.14-13.998,6.015-15.248c-3.122-2.717-8-5.188-9.438-5.25S32.29,85.959,32.438,91.375
		S41.875,105.312,42.812,105.375z"/>
	<path d="M92.312,105.375c-0.688,0.046-4.125-3.688-4.188-4.875s6.562-6.938,6.125-9.5s-6.672-5.812-6.749-7.312
		c-0.125-2.438-1-6.396-5.207-9.568c-0.785-0.545-1.7-0.557-0.605,0.381c5.312,5.75,8.086,13-1.916,14.812
		c0.418-6.062-3.959-14.375-5.834-15.625c0-1.062,8.062-4.438,9.499-4.5s19.397,16.771,19.25,22.188S93.249,105.312,92.312,105.375z
		"/>
	<path d="M80.062,90.812c-0.051-0.947,3.375-0.125,6.532-4.188c1.39-1.787,6.288,2.99,6.473,4.562c0.2,1.706-6.142,9.548-6.796,9.68
		c-1.473,0.297-3.604,0.562-4.896-0.367C80.593,99.938,80.208,93.562,80.062,90.812z"/>
	<path d="M63.441,100.092c1.307,0.574,7.264,0.252,8.201-0.123c0.389-0.219,0.156-3.407-0.193-3.731
		c-0.355-0.331-7.387-0.175-7.699,0.075S63.094,99.844,63.441,100.092z"/>
	<path d="M44.39,84.062"/>
	<path d="M78.669,91.188c-1.261-0.492-4.731,0.434-4.731-1.062c0-0.688,2.882,0.352,4.312-0.125c3.506-1.17-4.018-15.21-6.125-16
		c-1-0.375-4.212,0.76-5.25,0.75c-1.979-0.02-4.53-0.648-5.188,0c-4.375,4.312-6.125,13.04-5.69,14.632
		c0.442,1.619,4.315,0.118,4.252,0.931c-0.109,1.424-2.51,0.145-3.875,0.875c-0.75,0.4-0.891,5.314-0.516,7s4.93,2.047,6.242,1.859
		s0.336-3.984,0.773-4.422s7.688-0.438,9-0.188c1,0.19,0.188,2.938,1,4.014c0.812,1.075,5.169-0.326,5.794-1.076
		S79.629,91.562,78.669,91.188z M72.529,91.584c-0.391,0.803-1.684,0.664-5.683,0.664c-2.217,0-3.811,0.106-4.365-0.332
		c-1.268-1-0.321-2.958,0.878-6.412c1.723-4.957,3.102-6.088,4.234-6.088c0.99,0,2.388,2.911,2.816,3.75
		C70.73,83.793,73.5,89.584,72.529,91.584z"/>
	<path d="M66.847,91.673c-2.22,0-2.658-0.212-3.036-0.51c-0.851-0.671-1.16-1.858,0.094-5.47c1.73-4.986,2.876-4.986,3.561-4.986
		c1.198,0,1.605,1.529,2.209,2.709c0.029,0.059,3.003,6.304,1.943,7.22C71.187,91.009,70.869,91.673,66.847,91.673z"/>
	<path d="M52.667,90.417c2.375-0.5,2.188,7.981,1.814,9.675c-0.296,1.342-3.394,1.447-4.228,1.053s2.909-3.895,2.247-4.561
		c-0.663-0.667-1.833,3.309-2.833,3.82c-1,0.513-1.583,0.221-1.917-0.953C47.417,98.275,51.179,90.73,52.667,90.417z"/>
	<path d="M87,69.667c-0.599,0.257-2.25-1.501-3.75-1.417s-11.708,5.834-18.166,5.167c-7.058-0.729-11.649-5.667-13.867-6.333
		c-1.384-0.75,0.032-2.167,1.949-2.25c1.917-0.084,3.083,2.333,4,1.833c1.28-0.698-5.501-3.001-0.167-4.167
		c2.667-0.583,2.621,4.75,5,5.404c3.333,0.916,6.5-1.487,8.084-1.237c1.583,0.25,2.416,0.583,4.832,0.5
		c2.417-0.083,4.17-2.417,4.855-0.833c0.16,0.369-4.771,2.541-4.021,2.854s5.584-3.104,8.084-2.854S89.334,68.667,87,69.667z"/>
	<path d="M71,56c-3,3.375-3,8,2.188,10c5.521,2.129,7.688-7.062,8.812-5.188c-3.188,5.938,0.086,4.309,2.356,4.309
		c1.688,0,1.463,0.923,3.485,1.143c3.908,0.424,4.43-11.096,2.075-8.472c-2.542,2.833-5.333,0.583-4.708,2.208
		c0.133,0.348,1.48,0.5,1.386,1.188s-2.592,0.25-2.342-2.25S84.582,53.524,87.842,48c2.283-2.375,2.533-5.5,2.533-7.25
		s0.125-6.5-3.125-9.5s-4.625-1.625-5-1.25c0.37-6.51-7.875-9.567-10.562-10.067s-20.5-0.995-15.062,5.942
		c0.75,0.875-3.545,1.049-4.888-2.617c0,0-0.091-1.717-0.675-1.779C46.74,21.016,46.019,32.979,49.5,35.5
		c-3.634,3.526-2.299,6.75,1.163,6.875c-0.288-5.25,3.871-10.062,5.212-10.688C54.716,31.562,54.5,32,52.75,31.5s0.818-1.25,2.909-1
		s3.841,1.5,6.716,2.875s9.625,0.75,12.375-0.75c3.875,1.125,3.5,6.875,1.625,8.875s-4.125,6.375-1,9.875S78.125,58,76.25,59.25
		S71,60.5,71,56z"/>
	<path d="M48.917,58.5c0.583-0.916,1.375,2,2.458,2.084c1.083,0.082,4.963-0.666,5,0.583c0.049,1.667-3.904,1.625-6.375,4.131
		C49.297,66.012,47.643,60.502,48.917,58.5z"/>
	<path d="M49.812,57.75c1.438,0.656,2.486,2.562,3.28,2.129c0.104-0.058,1.454-1.503-0.218-2.379
		C51.166,56.604,48.722,57.252,49.812,57.75z"/>
	<path d="M58.347,54.822c0,0,3.524,0.125,6.479-0.322C62.249,58.136,60.396,58.979,58.347,54.822z"/>
	<path d="M74.688,52.688c-2.83-2.381-2.094-6.115-1.562-8.021C73.178,44.475,73.258,44,73.346,44c-0.002,0-0.003,0-0.004,0
		c-1.1,0-2.812,0.179-4.105,0.293c0.002,0.06,0.016,0.156,0.016,0.217c0,2.927-2.037,5.32-4.549,5.32s-4.549-2.362-4.549-5.289
		c0-0.297,0.035-0.576,0.075-0.859c-0.331-0.002-0.684,0.037-1.043,0.098c0.032,0.252,0.066,0.506,0.066,0.77
		c0,0.143-0.026,0.278-0.036,0.418c0.002,0.119-0.011,0.258-0.035,0.41c-0.065,0.48-0.179,0.939-0.348,1.369
		c-0.009,0.029-0.018,0.061-0.027,0.09c-0.323,1.058-0.833,3.396,1.194,3.227c0.75-0.062,1.586,0.812,0.344,1.072
		c-1.474-0.163-2.59-0.041-2.974-2.307c-0.75,0.637-1.667,1.023-2.667,1.023c-1.717,0-3.194-1.123-3.969-2.76
		c-0.099,2.986,0.521,5.436,1.141,7.158c1.438,4,5.659,6.978,8.625,8.205c4.938,2.045,3.174,2.789,2.236,2.602
		c-0.938-0.188-2.111-2.105-2.236-0.807c-0.107,1.111,0.957,3.004,3.207,3.062s4.418-0.938,4.98-1.875s0.035-2.75-0.5-4.125
		s0.062-5.375,3.625-6.5c0.188,4.938,2.812,4.438,4.104,3.625S77.518,55.068,74.688,52.688z M66.084,55.59
		c-0.918,0.25-1.876,2.586-4.417,2.908s-2.95-1.701-3.45-2.367c-0.5-0.667-3.142-2.862-2.308-2.881
		c3.758-0.084,8.193-0.108,9.093-0.108c0.898,0-0.085,0.691,0.832,1.024C66.75,54.5,67,55.34,66.084,55.59z"/>
	<path d="M53.431,37.602c-0.458,0.85-0.839,1.678-1.167,2.488c0.706-0.525,1.54-0.84,2.439-0.84c1.894,0,3.515,1.35,4.199,3.268
		c0.532-0.086,1.09-0.113,1.626-0.066c0.698-1.882,2.304-3.201,4.175-3.201c2.139,0,3.92,1.727,4.406,4.043
		c1.396-0.18,3.295-0.232,4.766-0.106c0.811-1.321,1.957-2.737,2.312-4.249c0.5-2.125-1.312-4.938-1.938-4.438
		c-3.75,1.438-8.942,0.718-11,0.375c-2.25-0.375-5.317-3.664-6.629-2.039c-0.792,0.981-1.465,1.94-2.073,2.885
		c1.092-0.113,2.884,0.354,2.786,0.945C57.205,37.439,54.88,36.861,53.431,37.602z M64.804,37.416
		c0.144-0.57,1.911-0.916,3.113,0.167s1.728,2.104,1.394,2.604c-0.333,0.5-1.467-1.029-2.403-1.779S64.554,38.416,64.804,37.416z"/>
	<path d="M54.688,40.25c-1.497,0-2.758,1.227-3.229,2.928c0.104,0.355,0.166,0.748,0.166,1.165c0,0.513-0.094,0.987-0.246,1.4
		c0.39,1.871,1.717,3.257,3.31,3.257c1.898,0,3.438-1.959,3.438-4.375S56.586,40.25,54.688,40.25z M55.541,46.334
		c-0.828,0-1.5-1.139-1.5-2.542s0.672-2.542,1.5-2.542c0.829,0,1.5,1.139,1.5,2.542S56.37,46.334,55.541,46.334z"/>
	<path d="M64.688,40.25c-1.898,0-3.437,1.959-3.437,4.375S62.789,49,64.688,49s3.438-1.959,3.438-4.375S66.586,40.25,64.688,40.25z
		 M65.541,46.334c-0.828,0-1.5-1.139-1.5-2.542s0.672-2.542,1.5-2.542s1.5,1.139,1.5,2.542S66.369,46.334,65.541,46.334z"/>
</g>
</svg>
