<?xml version="1.0" encoding="utf-8"?>
<!-- Generator: Adobe Illustrator 16.0.0, SVG Export Plug-In . SVG Version: 6.00 Build 0)  -->
<!DOCTYPE svg PUBLIC "-//W3C//DTD SVG 1.1//EN" "http://www.w3.org/Graphics/SVG/1.1/DTD/svg11.dtd">
<svg version="1.1" xmlns="http://www.w3.org/2000/svg" xmlns:xlink="http://www.w3.org/1999/xlink" x="0px" y="0px" width="288px"
	 height="216px" viewBox="0 0 288 216" enable-background="new 0 0 288 216" xml:space="preserve">
<g id="Layer_2">
</g>
<g id="Layer_3">
	<path fill="none" stroke="#EC1E24" stroke-width="0.25" stroke-miterlimit="10" d="M66.907,38.408
		c0.937,0.75,2.07,2.279,2.403,1.779c0.334-0.5-0.191-1.521-1.394-2.604s-2.97-0.737-3.113-0.167
		C64.554,38.416,65.971,37.658,66.907,38.408z"/>
	<ellipse fill="none" stroke="#EC1E24" stroke-width="0.25" stroke-miterlimit="10" cx="55.541" cy="43.792" rx="1.5" ry="2.542"/>
	<path fill="none" stroke="#EC1E24" stroke-width="0.25" stroke-miterlimit="10" d="M66.847,92.248c3.999,0,5.292,0.139,5.683-0.664
		c0.971-2-1.799-7.791-2.119-8.418c-0.429-0.839-1.826-3.75-2.816-3.75c-1.133,0-2.512,1.131-4.234,6.088
		c-1.199,3.454-2.146,5.412-0.878,6.412C63.036,92.354,64.63,92.248,66.847,92.248z M63.904,85.693
		c1.73-4.986,2.876-4.986,3.561-4.986c1.198,0,1.605,1.529,2.209,2.709c0.029,0.059,3.003,6.304,1.943,7.22
		c-0.431,0.373-0.748,1.037-4.771,1.037c-2.22,0-2.658-0.212-3.036-0.51C62.96,90.492,62.65,89.305,63.904,85.693z"/>
	<ellipse fill="none" stroke="#EC1E24" stroke-width="0.25" stroke-miterlimit="10" cx="65.541" cy="43.792" rx="1.5" ry="2.542"/>
	<path fill="none" stroke="#EC1E24" stroke-width="0.25" stroke-miterlimit="10" d="M58.217,56.131
		c0.5,0.666,0.908,2.689,3.45,2.367s3.5-2.658,4.417-2.908c0.916-0.25,0.666-1.09-0.25-1.424c-0.917-0.333,0.066-1.024-0.832-1.024
		c-0.9,0-5.335,0.024-9.093,0.108C55.075,53.269,57.717,55.464,58.217,56.131z M64.825,54.5c-2.576,3.636-4.43,4.479-6.479,0.322
		C58.347,54.822,61.871,54.947,64.825,54.5z"/>
	<path fill="none" stroke="#EC1E24" stroke-width="0.25" stroke-miterlimit="10" d="M102.877,96.417
		c5.166-9-5.167-17.167-8.917-21.917c-2.224-2.817-3.657-5.545-2.688-6.625c1.894-2.109,3.604-9.792,1.104-12.292
		c-3.303,1-6.834-1-1.834-6.333c2.834-2.667,5.334-21.167-6-21.334c-1.583-9.854-17.271-13.354-29.708-6.854
		c0,0-0.537-1.042-3.875-1.375c-3.271-0.326-9.375,3.562-4.734,18.435c-1.875,4.062,0.15,7.294,2.65,7.128
		c-0.667,2-0.26,7.936,0.146,10.688c-3.854-0.094-1.868,12.5-0.562,12.5c-8.312,6.375-17.415,17.976-17.417,22.979
		c-0.002,7.623,9.917,13.582,9.104,15.104c-0.688,1.021-5.75,7.167-5.783,18.729c-0.03,10.5,7.326,11.763,7.825,11.333
		c0.75-0.646-0.542-3.667-0.021-4.312s1.812-0.688,2.292,0.083s-0.292,7.481,0.208,11.147c-5.333,7.833-4.125,35.082-4.125,35.249
		c-5.167,2-8.167,10-4.667,10.833s13.833-2.167,14.667-8.166c8.167-42.833,13.167-44.5,13.167-44.5s8.667,0.333,8.667,0.167
		c7.5,6.334,12.021,42.902,13.118,46.922c0.715,2.619,14.339,6.633,15.882,4.744c2.146-2.625-1.667-7.188-7.479-10.25
		c2.438-26.168-2.651-34.169-3.151-37.502c10.422-0.666,12.756-8,13.256-10c0.535-2.144,8.13-8.005,9.333,3.667
		c1.667,16.167,5.333,16.667,11.125,9.96C136.21,123.875,120.314,109.792,102.877,96.417z M102.687,91.375
		c-0.147,5.416-9.438,13.938-10.375,14c-0.688,0.046-4.125-3.688-4.188-4.875s6.562-6.938,6.125-9.5s-6.672-5.812-6.749-7.312
		c-0.125-2.438-1-6.396-5.207-9.568c-0.785-0.545-1.7-0.557-0.605,0.381c5.312,5.75,8.086,13-1.916,14.812
		c0.418-6.062-3.959-14.375-5.834-15.625c0-1.062,8.062-4.438,9.499-4.5S102.834,85.959,102.687,91.375z M78.791,108.125
		c-0.541-2.625,0.864-2.875,1.271-2.875c-0.291-1.512,1.322-2.805,2.239-3.055c1.782,0.471,4.278,0.25,4.944-0.083
		c0.84,0,3.826,3.525,4.266,4.075c0,0.564-4.209,5.532-5.137,6.214s-2.959,0.404-3.209-1.04c-1.465-0.169-1.832-0.974-1.666-1.861
		C80.593,109.792,78.959,108.934,78.791,108.125z M52,111.361c-0.167,1.511-2.155,1.722-3.083,1.04s-5.242-5.151-5.242-5.716
		c0,0,3.659-4.49,3.742-4.49c0.667,0.333,4.002,0.471,5.784,0c0.917,0.25,2.53,1.543,2.239,3.055c0.407,0,1.812,0.25,1.271,2.875
		c-0.167,0.809-1.801,1.667-2.708,1.375C54.168,110.388,53.465,111.192,52,111.361z M52.5,96.584
		c-0.663-0.667-1.833,3.309-2.833,3.82c-1,0.513-1.583,0.221-1.917-0.953c-0.333-1.176,3.429-8.721,4.917-9.034
		c2.375-0.5,2.188,7.981,1.814,9.675c-0.296,1.342-3.394,1.447-4.228,1.053S53.163,97.25,52.5,96.584z M47.876,95.333
		c-0.75,0.124-3.583-2.791-3.667-3.667s2.958-3.791,4.083-3.75s1.583,0.959,1.583,1.75S48.626,95.209,47.876,95.333z M55.998,89.382
		c-0.435-1.592,1.315-10.319,5.69-14.632c0.657-0.648,3.208-0.02,5.188,0c1.038,0.01,4.25-1.125,5.25-0.75
		c2.107,0.79,9.631,14.83,6.125,16c-1.431,0.477-4.312-0.562-4.312,0.125c0,1.496,3.471,0.57,4.731,1.062
		c0.96,0.375,0.625,6.438,0,7.188s-4.981,2.151-5.794,1.076c-0.812-1.076,0-3.823-1-4.014c-1.312-0.25-8.562-0.25-9,0.188
		s0.539,4.234-0.773,4.422s-5.867-0.174-6.242-1.859s-0.234-6.6,0.516-7c1.365-0.73,3.766,0.549,3.875-0.875
		C60.312,89.5,56.439,91.001,55.998,89.382z M57,62.5c2.667-0.583,2.621,4.75,5,5.404c3.333,0.916,6.5-1.487,8.084-1.237
		c1.583,0.25,2.416,0.583,4.832,0.5c2.417-0.083,4.17-2.417,4.855-0.833c0.16,0.369-4.771,2.541-4.021,2.854
		s5.584-3.104,8.084-2.854s5.5,2.333,3.166,3.333c-0.599,0.257-2.25-1.501-3.75-1.417s-11.708,5.834-18.166,5.167
		c-7.058-0.729-11.649-5.667-13.867-6.333c-1.384-0.75,0.032-2.167,1.949-2.25c1.917-0.084,3.083,2.333,4,1.833
		C58.446,65.969,51.666,63.666,57,62.5z M51.875,54.25c-0.619-1.723-1.24-4.172-1.141-7.158c0.774,1.637,2.251,2.76,3.969,2.76
		c1,0,1.916-0.387,2.667-1.023c0.384,2.266,1.5,2.144,2.974,2.307C61.586,50.875,60.75,50,60,50.062
		c-2.027,0.169-1.517-2.169-1.194-3.227c0.009-0.029,0.018-0.061,0.027-0.09c0.168-0.43,0.282-0.889,0.348-1.369
		c0.024-0.152,0.038-0.291,0.035-0.41c0.01-0.14,0.036-0.275,0.036-0.418c0-0.264-0.035-0.518-0.066-0.77
		c0.359-0.061,0.712-0.1,1.043-0.098c-0.04,0.283-0.075,0.562-0.075,0.859c0,2.927,2.037,5.289,4.549,5.289s4.549-2.394,4.549-5.32
		c0-0.061-0.014,0.093-0.016,0.033c1.294-0.114,3.006-0.043,4.105-0.043c0.001,0,0.002,0,0.004,0c-0.088,0-0.168,0.225-0.221,0.416
		c-0.531,1.906-1.268,5.516,1.562,7.896s2.52,4.875,1.229,5.688S72,59.781,71.812,54.844c-3.562,1.125-4.16,5.109-3.625,6.484
		s1.062,3.18,0.5,4.117s-2.73,1.93-4.98,1.871s-3.314-1.953-3.207-3.064c0.125-1.299,1.298,0.618,2.236,0.806
		c0.938,0.188,2.701-0.557-2.236-2.602C57.534,61.228,53.312,58.25,51.875,54.25z M53.093,59.879
		c-0.794,0.434-1.843-1.473-3.28-2.129c-1.09-0.498,1.354-1.146,3.062-0.25C54.547,58.376,53.197,59.821,53.093,59.879z
		 M51.458,43.178c0.471-1.701,1.732-2.928,3.229-2.928c1.898,0,3.438,1.959,3.438,4.375S56.586,49,54.688,49
		c-1.592,0-2.919-1.386-3.31-3.257c0.152-0.413,0.246-0.888,0.246-1.4C51.624,43.926,51.562,43.533,51.458,43.178z M54.548,35.721
		c0.607-0.944,1.28-1.903,2.073-2.885C57.933,31.211,61,34.5,63.25,34.875c2.058,0.343,7.25,1.062,11-0.375
		c0.625-0.5,2.438,2.312,1.938,4.438c-0.355,1.512-1.502,2.928-2.312,4.249c-1.471-0.126-3.369-0.073-4.766,0.106
		c-0.486-2.316-2.268-4.043-4.406-4.043c-1.871,0-3.477,1.319-4.175,3.201c-0.536-0.047-1.094-0.02-1.626,0.066
		c-0.685-1.918-2.306-3.268-4.199-3.268c-0.899,0-1.733,0.314-2.439,0.84c0.328-0.811,0.709-1.639,1.167-2.488
		c1.449-0.74,3.773-0.162,3.902-0.936C57.432,36.074,55.64,35.607,54.548,35.721z M68.125,44.625c0,2.416-1.539,4.375-3.438,4.375
		s-3.437-1.959-3.437-4.375s1.539-4.375,3.437-4.375S68.125,42.209,68.125,44.625z M71.643,99.969
		c-0.938,0.375-6.895,0.697-8.201,0.123c-0.348-0.248-0.004-3.529,0.309-3.779s7.344-0.406,7.699-0.075
		C71.799,96.562,72.031,99.75,71.643,99.969z M56.833,99.881c5.229,2.07,18.898,1.182,20.917-0.318
		c1.104-0.812,1.875,3.062,0.25,3.812s-16.521,2-21.167,0.375C55.208,103.209,55.125,98.875,56.833,99.881z M57.5,105
		c3.911,0.898,14.584,1,20.084,0c-0.75,4.75,2.479,4.542,2.479,6.854c-2.584,0.701-9.131,6.917-10,9.917
		c-0.75,2.188-3.358,1.95-4.32,0.197c-1.092-1.99-6.242-8.753-10.617-10.565C56.196,109.292,58.583,108.833,57.5,105z
		 M80.062,90.812c-0.051-0.947,3.375-0.125,6.532-4.188c1.39-1.787,6.288,2.99,6.473,4.562c0.2,1.706-6.142,9.548-6.796,9.68
		c-1.473,0.297-3.604,0.562-4.896-0.367C80.593,99.938,80.208,93.562,80.062,90.812z M49.5,35.5
		c-3.481-2.521-2.76-14.484,1.562-14.021c0.583,0.062,0.675,1.779,0.675,1.779c1.342,3.666,5.638,3.492,4.888,2.617
		C51.188,18.938,69,19.433,71.688,19.933S82.62,23.49,82.25,30c0.375-0.375,1.75-1.75,5,1.25s3.125,7.75,3.125,9.5
		s-0.25,4.875-2.533,7.25c-3.26,5.524-3.339,8.438-3.589,10.938s2.247,2.938,2.342,2.25s-1.253-0.84-1.386-1.188
		c-0.625-1.625,2.166,0.625,4.708-2.208c2.354-2.624,1.833,8.896-2.075,8.472c-2.022-0.22-1.798-1.143-3.485-1.143
		c-2.271,0-5.544,1.629-2.356-4.309c-1.125-1.875-3.291,7.316-8.812,5.188C68,64,68,59.375,71,56c0,4.5,3.375,4.5,5.25,3.25
		s2.25-4.375-0.875-7.875s-0.875-7.875,1-9.875s2.25-7.75-1.625-8.875c-2.75,1.5-9.5,2.125-12.375,0.75S57.75,30.75,55.659,30.5
		S51,31,52.75,31.5s1.966,0.062,3.125,0.188c-1.341,0.625-5.5,5.438-5.212,10.688C47.201,42.25,45.866,39.026,49.5,35.5z
		 M48.917,58.5c0.583-0.916,1.375,2,2.458,2.084c1.083,0.082,4.963-0.666,5,0.583c0.049,1.667-3.904,1.625-6.375,4.131
		C49.297,66.012,47.643,60.502,48.917,58.5z M32.438,91.375c-0.148-5.416,17.812-22.25,19.25-22.188s6.315,2.533,9.438,5.25
		c-1.875,1.25-6.432,9.186-6.015,15.248C44.923,87.061,51.125,76.75,53,75.5c0.688-0.375,1-1.078,0.438-1.125
		c-3.184,0.312-5.375,7.25-5.5,9.688c-0.077,1.5-6.625,4.375-7.062,6.938s6.188,8.312,6.125,9.5s-3.499,4.921-4.188,4.875
		C41.875,105.312,32.585,96.791,32.438,91.375z M36.125,125.292c-0.503-6.165,5-18.417,6.188-18.604c0.617-0.098,2.25,3,2.062,3.438
		s-6.384,11.125-4.134,22.625C40.679,134.5,36.628,131.457,36.125,125.292z M43.062,128.438c-0.625-0.5-1.568-0.997-1.572-3.5
		c-0.009-6.438,3.384-13.438,3.384-13.438c0.528-0.812,4.562,2.188,4.438,2.875s-3.163,6.537-3.726,13.92
		C45.524,129.49,43.688,128.938,43.062,128.438z M48.688,181.5c0.479,2.453-7.312,5.375-8.562,5.75s-5.28,1.454-3.688-2.249
		c1.146-2.667,6.438-4.751,6.813-4.751c-0.625-4.25-1.814-21.875,0.061-26.5c2.61,1.364,9.647,1.584,11.272,1.084
		C54.708,154.959,48.193,179.062,48.688,181.5z M57.167,143.417c-1.75,5.666-2.496,8.917-2.581,10s-9.02,0.583-10.52-0.833
		s1.768-5.917,2.185-7.251s-0.417-15.917,1.333-22.5s4.083-10.083,6.083-10.416s8.917,4.75,12,11.666
		C66.584,125.917,58.917,137.751,57.167,143.417z M70.459,132.667c-0.375,0.535-5.15,0.866-5.709-0.042
		c-0.562-0.913,1.359-7.333,2.776-7.333C69.234,125.292,70.945,131.972,70.459,132.667z M92.334,179.833
		c1.081,0.487,6.604,2.916,7.75,5.583c1.592,3.703-2.917,2.647-4.167,2.272s-9.25-3.272-9.333-5.605
		c-0.084-4-5.639-27.291-5.514-27.416c1.625,0.5,8.351,0.447,10.961-0.917C93.008,159.182,92.959,175.583,92.334,179.833z
		 M91.145,152.75c-1.5,1.416-9.99,1.5-10.076,0.417c-0.085-1.083-1.068-4.084-2.818-9.75s-9.418-17.5-8.5-19.334
		c3.083-6.916,10-11.999,12-11.666s4.395,4.224,5.666,10.916c1.252,6.584,0.834,20.416,1.25,21.75
		C89.083,146.417,92.645,151.334,91.145,152.75z M108.396,122.938c-0.562,1.375-3.833,1.312-6.396,7.562
		c-0.893,2.177-5.625,9.938-11.938,8.438c-1.062-20.312-2-20.25-3.438-24.25c-0.641-1.008,9.125-11.5,10.188-11.562
		S108.958,121.562,108.396,122.938z M117.375,144.062c-2.125-24.625-19.75-41.062-19.438-42.5s1.625-2.812,2.438-2.75
		s25.052,18.312,26.188,28.438C128.203,141.878,118.826,150.026,117.375,144.062z"/>
</g>
</svg>
